<?xml version="1.0" encoding="utf-8"?>
<!-- Generator: Adobe Illustrator 24.3.0, SVG Export Plug-In . SVG Version: 6.00 Build 0)  -->
<svg version="1.1" id="Layer_1" xmlns="http://www.w3.org/2000/svg" xmlns:xlink="http://www.w3.org/1999/xlink" x="0px" y="0px"
	 viewBox="0 0 524.7 316.6" style="enable-background:new 0 0 524.7 316.6;" xml:space="preserve">
<style type="text/css">
	.st0{fill:#3F2716;}
	.st1{fill:#4C4A48;}
	.st2{fill:#3F3F3F;}
	.st3{fill:#333333;}
	.st4{fill:#8C8B8B;}
</style>
<g>
	<g>
		<g>
			<g>
				<path class="st0" d="M62.3,107.8c22.7-38.1,83.9-30,99.4-29.3c49.2,2.2,82.2,20.5,96.1,27.4c8.7,4.3,55.8,28.2,82.4,79.2
					c7.4,14.2,19.3,37.3,9.8,57c-3.2,6.7-8.7,12.9-16.8,17.9c-34.5,21.1-74.5,23.7-114.1,23.7c-38.9-0.1-80.2-2-116.6-16.4
					c-20.1-7.9-48-30.6-49.7-52.1C43,187.1,46.3,134.5,62.3,107.8z"/>
				<path class="st1" d="M135.2,271.7c32.2,5.3,64.3,6.5,96.9,6.4c29.9-0.2,59.1-4.6,86.6-16.4c14.1-6.1,23.6-15.1,29.7-28.9
					c7.5-17.1-5.2-39.2-23.1-65c-11.7-16.9-22.7-27.9-38.9-41c-3.5-2.8-20.8-16.6-48.1-26.7c-39.6-14.6-73.3-21-94.4-18.8
					c-20.5,2.1-42.2,6.9-44.7,7.9c-17.7,7.4-25.8,16.8-37.1,33.5c-16.1,23.8-8.4,64-0.8,90.4c0.2,0.2,0.4,0.4,0.5,0.6
					C74.3,248.8,98.4,265.7,135.2,271.7z"/>
				<path class="st2" d="M58.1,129.5c0.9-1.9,2.8-5.1,4.1-6.8c10.8,8.7,31.2,24.3,41.9,33.2c22.1,18.3,44.7,39.5,70.3,53
					c11,5.8,22.7,9.8,34.6,12.4c44.9,14.9,93.7,7.9,140.8,7.1c-0.4,1.4-0.8,2.8-1.4,4.2c-6.1,13.8-15.6,22.8-29.7,28.9
					c-27.5,11.8-56.7,16.3-86.6,16.4c-32.6,0.2-64.8-1.1-96.9-6.4c-36.8-6-61-22.9-73.3-58c0-0.2-0.2-0.4-0.5-0.6
					C53.9,186.8,46,156,58.1,129.5z"/>
				<path class="st3" d="M61.2,124.2c11.3-16.7,20.4-27.7,38.2-35c10.8-4.5,30.1-6.4,42.8-7.8c31.4-3.4,56,6,70.2,10
					c9,2.5,20.3,5.6,34.5,12c17.2,7.7,30.5,16.5,39.7,23.4c-21.9-3.2-33.9-5.9-40.8-7.5c-10.6-2.5-17.5-4.2-28.9-5.8
					c-9.9-1.4-25.3-4.2-33.4,3.8c-6.6,6.5-6.3,16.1-4.1,24.6c9.4,36,30,71.4,58,96.4c13.6,12.2,28.5,23.4,42.7,35.1
					c-15.6,3.1-31.6,4.5-47.8,4.6c-32.6,0.2-64.8-1.1-96.9-6.4c-36.8-6-61-22.9-73.3-58c0-0.2-0.2-0.4-0.5-0.6
					C53.9,186.8,45.1,148.1,61.2,124.2z"/>
			</g>
			<path class="st4" d="M265.2,149.2c2.9-6.4,11.6-5.5,17.3-4.1c11.1,2.7,25.6,12,31.9,23c0.7,0.8,1.3,1.5,1.9,2.3
				c8,10.5-4.5,15.2-13.8,12.6c-12.1-3.4-22.9-11.2-31.3-20C268.4,160,263.2,153.6,265.2,149.2z"/>
		</g>
	</g>
</g>
</svg>
