<?xml version="1.0" encoding="utf-8"?>
<!-- Generator: Adobe Illustrator 24.3.0, SVG Export Plug-In . SVG Version: 6.00 Build 0)  -->
<svg version="1.1" id="Layer_1" xmlns="http://www.w3.org/2000/svg" xmlns:xlink="http://www.w3.org/1999/xlink" x="0px" y="0px"
	 viewBox="0 0 524.7 316.6" style="enable-background:new 0 0 524.7 316.6;" xml:space="preserve">
<style type="text/css">
	.st0{fill:#5C2F10;}
	.st1{fill:#9EA8AA;}
	.st2{fill:#6D7070;}
	.st3{fill:#BFC3C4;}
</style>
<g>
	<g>
		<g>
			<g>
				<path class="st0" d="M427,81.9C401.3,37.7,356.3,21,306.9,22.1c-87.3,2-188.4,58.2-236.5,130.8c-21.2,32.1-29,75.3,9.1,99.3
					c44.6,28.1,96.4,31.5,147.7,31.4c50.3-0.1,103.8-2.6,150.9-21.8c26-10.5,52.8-41.6,55-70.1C445.7,154.5,447.7,117.3,427,81.9z"
					/>
				<path class="st1" d="M335.7,267.8c-41.6,7-83.3,8.7-125.5,8.4c-38.7-0.2-76.5-6.1-112.1-21.8c-18.2-8-30.6-20-38.5-38.3
					c-13-30.4,14.7-63.1,32.9-84.4C146.7,68.8,241,24.9,324.2,27.7c42.7,1.5,75.5,23.8,98.2,58.2c20.9,31.6,18.6,69.2,8.8,104.3
					c-0.3,0.2-0.5,0.5-0.6,0.7C414.6,237.5,383.3,259.8,335.7,267.8z"/>
				<path class="st1" d="M422.4,85.9c-1.5-2.3-3.1-4.6-4.8-6.8c-14,11.6-27.9,23.4-41.8,35.2c-28.6,24.2-57.8,52.4-91,70.3
					c-14.3,7.7-29.3,12.9-44.8,16.5c-58.1,19.8-121.3,10.5-182.3,9.4c0.5,1.9,1,3.7,1.8,5.6c7.8,18.3,20.2,30.3,38.5,38.3
					c35.6,15.7,73.4,21.6,112.1,21.8c42.2,0.2,83.8-1.4,125.5-8.4c47.6-8,78.9-30.3,94.9-76.9c0.1-0.2,0.3-0.5,0.6-0.7
					C441,155.1,443.3,117.5,422.4,85.9z"/>
				<path class="st2" d="M422.4,85.9c-22.8-34.4-55.6-56.7-98.2-58.2c-56.5-1.9-118,17.7-168.7,50.2c24.2-9.8,49.9-16.5,74.6-20
					c12.9-1.8,32.7-5.6,43.2,5.1c8.6,8.7,8.1,21.4,5.3,32.6c-12.1,47.7-38.8,94.7-75,127.9c-17.7,16.2-36.9,31.1-55.3,46.6
					c20.2,4.1,40.9,6,61.9,6.1c42.2,0.2,83.8-1.4,125.5-8.4c47.6-8,78.9-30.3,94.9-76.9c0.1-0.2,0.3-0.5,0.6-0.7
					C441,155.1,443.3,117.5,422.4,85.9z"/>
			</g>
			<path class="st3" d="M167.5,105.3c-3.7-8.5-15-7.3-22.4-5.5c-14.3,3.6-33.2,16-41.3,30.5c-0.8,1-1.7,2-2.5,3
				c-10.3,13.9,5.8,20.2,17.8,16.7c15.6-4.5,29.6-14.8,40.6-26.6C163.3,119.6,170.1,111.2,167.5,105.3z"/>
		</g>
	</g>
</g>
</svg>
