<svg width="135" height="76" viewBox="0 0 135 76" fill="none" xmlns="http://www.w3.org/2000/svg">
<circle cx="64.5" cy="38.5" r="28.5" stroke="#3C8662" stroke-width="4"/>
<path d="M87 38.5C87 50.9468 77.1301 61 65 61C52.8699 61 43 50.9468 43 38.5C43 26.0532 52.8699 16 65 16C77.1301 16 87 26.0532 87 38.5Z" stroke="#3C8662" stroke-width="2"/>
<circle cx="64.5" cy="38.5" r="15.5" stroke="#3C8662" stroke-width="2"/>
<path d="M74 38.5C74 43.1467 70.0195 47 65 47C59.9805 47 56 43.1467 56 38.5C56 33.8533 59.9805 30 65 30C70.0195 30 74 33.8533 74 38.5Z" fill="#3C8662" stroke="#3C8662" stroke-width="2"/>
<path d="M0.465063 32.4H8.19306V54.288L24.2251 32.4H31.5211V66H23.8411V44.16L7.80906 66H0.465063V32.4Z" fill="#3C8662"/>
<path d="M127.643 34L127.595 13.888L117.707 30.448H114.251L104.363 14.272V34H97.0666V0.399998H103.499L116.075 21.28L128.459 0.399998H134.891L134.939 34H127.643Z" fill="#3C8662"/>
<path d="M42.2056 75.2409C42.3386 75.7769 42.881 76.1036 43.417 75.9705L52.1519 73.8023C52.688 73.6693 53.0146 73.1269 52.8816 72.5908C52.7485 72.0548 52.2061 71.7282 51.6701 71.8612L43.9057 73.7885L41.9784 66.0242C41.8454 65.4882 41.303 65.1615 40.767 65.2945C40.2309 65.4276 39.9043 65.97 40.0373 66.506L42.2056 75.2409ZM86.2854 1.48407L42.3195 74.4841L44.0328 75.5159L87.9987 2.51593L86.2854 1.48407Z" fill="#3C8662"/>
<path d="M103.011 59.2817C103.154 59.8152 102.837 60.3635 102.304 60.5064L93.6102 62.8358C93.0768 62.9788 92.5284 62.6622 92.3855 62.1287C92.2425 61.5952 92.5591 61.0469 93.0926 60.904L100.82 58.8334L98.7494 51.106C98.6065 50.5725 98.9231 50.0242 99.4566 49.8813C99.99 49.7383 100.538 50.0549 100.681 50.5884L103.011 59.2817ZM28.7443 16.0658L102.545 58.6745L101.545 60.4065L27.7443 17.7978L28.7443 16.0658Z" fill="#3C8662"/>
</svg>
