<svg width="864" height="116" viewBox="0 0 864 116" fill="none" xmlns="http://www.w3.org/2000/svg">
<path d="M0 55C0 24.6243 24.6243 0 55 0H809C839.376 0 864 24.6243 864 55V61C864 91.3757 839.376 116 809 116H55C24.6243 116 0 91.3757 0 61V55Z" fill="#2D2D2D"/>
<path d="M325.836 22.8438V32.6875C326.62 32.5417 327.13 32.4688 327.367 32.4688V22.8438H325.836ZM330.648 22.8438V31.8125H330.758C334.878 31.0104 337.539 30.2083 338.742 29.4062C341.714 28.2031 343.354 27.474 343.664 27.2188C343.901 26.526 344.083 25.3958 344.211 23.8281C344.284 23.8281 344.32 23.7552 344.32 23.6094C343.591 23.099 341.185 22.8438 337.102 22.8438H330.648ZM325.945 35.9688V36.1875C326.091 36.1875 326.346 36.3333 326.711 36.625L326.82 35.8594C326.419 35.9323 326.128 35.9688 325.945 35.9688ZM323.758 54.6719V54.7812C332.727 57.9167 337.794 59.4844 338.961 59.4844H340.492C341.003 59.1927 341.258 59.0104 341.258 58.9375C340.383 55.4922 337.831 51.263 333.602 46.25C332.617 45.5391 331.049 44.1172 328.898 41.9844L328.68 41.875C328.169 42.3672 326.966 45.9766 325.07 52.7031C324.76 54.0156 324.323 54.6719 323.758 54.6719ZM329.227 12.7812C330.174 13.0182 330.648 13.4922 330.648 14.2031V19.5625H336.883C341.805 19.5625 344.904 19.9635 346.18 20.7656C347.201 21.0573 347.711 21.5677 347.711 22.2969V22.4062C347.711 23.3359 347.565 24.5026 347.273 25.9062C347.273 28.2943 346.107 29.9714 343.773 30.9375C341.404 31.8854 339.398 32.7604 337.758 33.5625L330.32 35.3125C330.32 35.5312 330.065 36.625 329.555 38.5938C329.974 38.5938 331.979 40.3438 335.57 43.8438C336.281 44.2266 337.193 45.2839 338.305 47.0156C342.406 52.2474 344.484 56.2943 344.539 59.1562V59.8125C344.539 60.3047 344.029 61.0339 343.008 62C342.88 62 342.406 62.2552 341.586 62.7656H338.086C334.586 61.9635 329.846 60.4688 323.867 58.2812C320.367 57.2786 316.977 55.7474 313.695 53.6875C312.456 53.0495 311.836 52.3568 311.836 51.6094C311.836 50.8438 312.383 50.2604 313.477 49.8594C313.951 49.9141 315.299 50.6797 317.523 52.1562C318.49 52.5938 319 52.8125 319.055 52.8125V52.7031C319.711 50.9896 320.331 48.6562 320.914 45.7031C321.042 45.7031 321.188 45.1927 321.352 44.1719C321.862 42.8776 322.263 41.1641 322.555 39.0312V37.6094C320.951 36.7161 320.148 35.8411 320.148 34.9844C320.148 34.0182 320.951 33.362 322.555 33.0156V23.3906C321.88 23.6823 321.26 23.8281 320.695 23.8281H320.477C319.529 23.5911 319.055 23.1172 319.055 22.4062V22.0781C319.055 21.0755 320.331 20.3828 322.883 20C322.883 19.8724 323.284 19.7266 324.086 19.5625H324.414C324.633 19.5625 324.742 19.599 324.742 19.6719L325.289 19.5625H327.367V14.9688C327.513 13.5104 327.987 12.7812 328.789 12.7812H329.227ZM381.262 15.0781H381.59C382.538 15.3151 383.012 15.7891 383.012 16.5V16.8281L381.699 22.5156C381.426 23.1536 380.842 26.4714 379.949 32.4688C379.22 35.0938 378.564 39.2135 377.98 44.8281C377.908 44.8281 377.762 45.4844 377.543 46.7969C380.46 48.3828 383.121 49.5859 385.527 50.4062C387.35 51.1901 388.262 51.8464 388.262 52.375C388.335 52.375 388.371 52.4844 388.371 52.7031V53.0312C388.134 53.9792 387.66 54.4531 386.949 54.4531H386.621C386.384 54.4531 384.853 53.8333 382.027 52.5938C381.371 52.5391 379.694 51.737 376.996 50.1875L376.34 55.5469V55.9844L376.23 56.2031C376.668 56.4948 376.887 56.8594 376.887 57.2969V60.6875L376.449 63.75C376.212 65.2083 375.665 65.9375 374.809 65.9375H374.48C373.806 65.9375 373.296 65.4271 372.949 64.4062C373.095 63.6042 373.168 63.0208 373.168 62.6562C373.022 62.1458 372.949 61.7083 372.949 61.3438V59.1562C372.949 58.9193 372.876 58.4089 372.73 57.625C373.387 52.6302 373.824 49.6042 374.043 48.5469C369.103 45.5026 365.822 43.6068 364.199 42.8594C362.577 45.0833 360.171 49.2396 356.98 55.3281C355.303 59.849 354.137 62.1094 353.48 62.1094H352.824C351.876 61.8724 351.402 61.3984 351.402 60.6875V60.1406C353.225 55.6562 354.538 52.6667 355.34 51.1719C357.928 46.6328 359.605 43.8255 360.371 42.75C360.462 42.75 360.79 42.3125 361.355 41.4375V41.3281C358.111 39.0677 356.47 37.9375 356.434 37.9375C356.215 37.9375 355.376 37.4271 353.918 36.4062C352.751 36.3151 352.168 35.8411 352.168 34.9844V34.6562C352.168 33.7995 352.824 33.2891 354.137 33.125C354.848 33.125 355.868 33.6354 357.199 34.6562C357.728 34.8203 359.15 35.7682 361.465 37.5C361.592 37.5365 362.212 37.901 363.324 38.5938C368.21 30.8646 371.491 25.4688 373.168 22.4062C375.757 18.8151 377.652 16.8828 378.855 16.6094C378.91 16.4818 379.238 16.3359 379.84 16.1719C380.223 15.4427 380.697 15.0781 381.262 15.0781ZM378.637 20.6562C376.613 23.099 375.52 24.6302 375.355 25.25C371.09 32.5052 368.027 37.4635 366.168 40.125C366.314 40.125 369.121 41.7292 374.59 44.9375L376.121 34.3281C376.777 31.776 377.507 27.6562 378.309 21.9688C378.363 21.9688 378.509 21.5312 378.746 20.6562H378.637ZM402.289 15.0234H402.672C403.729 15.2969 404.258 15.8346 404.258 16.6367C404.258 20.8112 403.146 26.3255 400.922 33.1797C400.594 34.0911 399.072 39.2773 396.355 48.7383C398.379 49.2305 401.633 49.7318 406.117 50.2422V49.4766C406.536 46.1224 406.783 43.388 406.855 41.2734C407.366 40.4531 407.904 40.043 408.469 40.043H408.852C409.927 40.2982 410.465 40.8359 410.465 41.6562V43.7617C410.21 46.0951 410.082 47.6263 410.082 48.3555C409.918 48.9388 409.836 49.276 409.836 49.3672V50.8438H409.945C413.81 51.3542 416.326 51.7279 417.492 51.9648C417.583 51.9648 417.711 52.0104 417.875 52.1016V49.9961C417.875 44.1445 418.167 39.8698 418.75 37.1719C418.987 34.638 419.105 32.7695 419.105 31.5664V24.2383C419.105 23.4727 419.689 22.8893 420.855 22.4883C422.168 22.7799 422.824 23.3633 422.824 24.2383V31.5664C422.824 33.8451 422.451 37.5365 421.703 42.6406C421.63 44.974 421.594 47.4258 421.594 49.9961V54.5898C421.32 55.6654 420.783 56.2031 419.98 56.2031H419.352C417.255 55.6198 414.822 55.2096 412.051 54.9727C410.465 54.6263 405.434 53.8789 396.957 52.7305C394.77 52.2018 393.493 51.8281 393.129 51.6094C392.6 51.0625 392.272 50.4792 392.145 49.8594L399.828 23.6094C400.065 22.4062 400.348 19.9544 400.676 16.2539C401.168 15.4336 401.706 15.0234 402.289 15.0234ZM430.754 19.7812H434.91C435.293 19.7812 438.538 20.2005 444.645 21.0391C447.853 21.1849 449.457 21.4857 449.457 21.9414C449.676 22.3242 449.785 22.625 449.785 22.8438V23.1719C449.548 24.1562 449.074 24.6484 448.363 24.6484C444.699 24.4479 440.288 23.9557 435.129 23.1719H431.52C430.499 27.875 429.988 31.3932 429.988 33.7266C436.423 35.0208 439.85 35.668 440.27 35.668C441.29 36.1419 441.947 36.707 442.238 37.3633C442.311 37.4909 442.348 37.6367 442.348 37.8008V38.1562C442.111 39.1406 441.637 39.6328 440.926 39.6328H440.598L438.738 38.8398C432.996 37.6914 430.007 37.1172 429.77 37.1172V45.9766C430.207 50.0599 430.608 52.6667 430.973 53.7969H436.441C437.243 53.7969 441.145 54.2161 448.145 55.0547H452.191C453.796 55.0547 454.598 55.5833 454.598 56.6406V56.9688C454.361 57.9531 453.887 58.4453 453.176 58.4453H448.145C441.145 57.6068 437.243 57.1875 436.441 57.1875H429.988C428.803 57.1875 427.928 55.7565 427.363 52.8945L426.488 45.9766V37.6914C426.908 30.0534 427.272 26.2344 427.582 26.2344C428.165 23.2448 428.566 21.3581 428.785 20.5742C429.259 20.0456 429.915 19.7812 430.754 19.7812ZM488.668 16.7188H488.887C489.798 16.974 490.254 17.4753 490.254 18.2227V18.5781C490.254 19.7448 489.096 20.4375 486.781 20.6562C486.654 20.6562 486.581 20.8477 486.562 21.2305V37.0352C487.255 43.1966 487.921 47.4714 488.559 49.8594C488.704 50.4427 488.777 50.9805 488.777 51.4727V51.7188C488.54 52.7214 488.085 53.2227 487.41 53.2227H486.973C486.061 53.2227 485.533 52.2565 485.387 50.3242C484.767 47.4622 484.102 43.0326 483.391 37.0352V20.9844H482.652C481.066 21.1484 480.219 21.2305 480.109 21.2305H475.68C474.659 21.2305 473.073 21.2669 470.922 21.3398V21.4492C470.922 26.0977 470.22 34.5286 468.816 46.7422C468.743 50.8802 468.707 54.1979 468.707 56.6953C468.361 57.5339 467.905 57.9531 467.34 57.9531H467.012C466.155 57.9531 465.663 57.224 465.535 55.7656C465.535 48.1823 465.818 42.8685 466.383 39.8242C467.294 31.8581 467.75 25.8151 467.75 21.6953H467.641C467.057 21.6953 466.638 21.194 466.383 20.1914V19.8359C466.383 18.6693 467.65 18.013 470.184 17.8672C472.991 17.7943 475.452 17.7578 477.566 17.7578H480.219C480.31 17.7578 480.875 17.6849 481.914 17.5391H483.801C484.767 17.5391 486.389 17.2656 488.668 16.7188ZM506.496 15.6797H507.836C509.659 15.6797 511.372 16.3724 512.977 17.7578C515.201 19.2526 516.613 21.1667 517.215 23.5C518.345 27.0182 518.91 29.1419 518.91 29.8711C518.983 30.2539 519.02 30.7279 519.02 31.293V36.707C518.801 41.0091 518.427 44.2539 517.898 46.4414C517.188 48.7565 515.693 51.4635 513.414 54.5625C511.992 56.112 510.917 56.9596 510.188 57.1055H505.703C503.406 57.1055 501.884 56.4128 501.137 55.0273C499.478 53.9154 498.284 52.375 497.555 50.4062C495.312 46.4505 494.191 42.5768 494.191 38.7852V37.6641C494.191 34.4557 495.121 29.625 496.98 23.1719C497.673 22.0052 498.421 21.4219 499.223 21.4219C499.223 21.276 499.742 20.6927 500.781 19.6719C500.781 19.0885 501.793 17.9674 503.816 16.3086C504.582 15.8893 505.475 15.6797 506.496 15.6797ZM497.773 36.9805V38.5391C497.901 41.3281 499.141 44.7279 501.492 48.7383C502.148 49.0846 502.905 49.7591 503.762 50.7617C504.29 51.181 504.974 51.3906 505.812 51.3906H509.203C510.516 51.3906 511.828 50.1875 513.141 47.7812C513.542 47.599 514.116 46.4505 514.863 44.3359C515.538 42.6589 515.875 40.7812 515.875 38.7031C516.021 38.7031 516.094 37.8099 516.094 36.0234V30.3906C516.094 29.8984 515.374 27.5469 513.934 23.3359C511.618 21.1302 509.659 20.0273 508.055 20.0273H505.922C505.211 20.3737 503.999 21.6315 502.285 23.8008L499.934 26.1523C498.493 31.0742 497.773 34.6836 497.773 36.9805ZM537.969 15.2422H538.297C539.318 15.2422 539.828 16.582 539.828 19.2617C540.193 26.8815 540.74 33.0612 541.469 37.8008C542.198 39.7331 542.964 42.9414 543.766 47.4258C544.13 48.3737 544.568 49.7591 545.078 51.582V52.0195C544.841 53.2591 544.367 53.8789 543.656 53.8789H543.219C542.271 53.8789 541.578 52.6393 541.141 50.1602C540.721 49.1393 540.138 46.5964 539.391 42.5312C538.625 40.7995 538.078 38.0195 537.75 34.1914C537.312 31.0924 537.057 28.5586 536.984 26.5898C534.852 30.9102 532.883 35.4583 531.078 40.2344L525.391 52.8672C524.534 54.2161 523.841 54.8906 523.312 54.8906H522.875C521.927 54.5807 521.453 53.9609 521.453 53.0312V52.5938C521.453 52.0469 521.927 51.2357 522.875 50.1602C523.987 47.4622 525.445 44.1536 527.25 40.2344C529.693 34.1094 531.734 29.3698 533.375 26.0156C534.013 24.5755 534.888 21.8958 536 17.9766C536.583 16.1536 537.24 15.2422 537.969 15.2422ZM552.926 19.7812H557.082C557.465 19.7812 560.71 20.2005 566.816 21.0391C570.025 21.1849 571.629 21.4857 571.629 21.9414C571.848 22.3242 571.957 22.625 571.957 22.8438V23.1719C571.72 24.1562 571.246 24.6484 570.535 24.6484C566.871 24.4479 562.46 23.9557 557.301 23.1719H553.691C552.671 27.875 552.16 31.3932 552.16 33.7266C558.595 35.0208 562.022 35.668 562.441 35.668C563.462 36.1419 564.118 36.707 564.41 37.3633C564.483 37.4909 564.52 37.6367 564.52 37.8008V38.1562C564.283 39.1406 563.809 39.6328 563.098 39.6328H562.77L560.91 38.8398C555.168 37.6914 552.178 37.1172 551.941 37.1172V45.9766C552.379 50.0599 552.78 52.6667 553.145 53.7969H558.613C559.415 53.7969 563.316 54.2161 570.316 55.0547H574.363C575.967 55.0547 576.77 55.5833 576.77 56.6406V56.9688C576.533 57.9531 576.059 58.4453 575.348 58.4453H570.316C563.316 57.6068 559.415 57.1875 558.613 57.1875H552.16C550.975 57.1875 550.1 55.7565 549.535 52.8945L548.66 45.9766V37.6914C549.079 30.0534 549.444 26.2344 549.754 26.2344C550.337 23.2448 550.738 21.3581 550.957 20.5742C551.431 20.0456 552.087 19.7812 552.926 19.7812Z" fill="white"/>
<path d="M325.836 22.8438V21.8438H324.836V22.8438H325.836ZM325.836 32.6875H324.836V33.8907L326.019 33.6706L325.836 32.6875ZM327.367 32.4688V33.4688H328.367V32.4688H327.367ZM327.367 22.8438H328.367V21.8438H327.367V22.8438ZM330.648 22.8438V21.8438H329.648V22.8438H330.648ZM330.648 31.8125H329.648V32.8125H330.648V31.8125ZM330.758 31.8125V32.8125H330.854L330.949 32.7941L330.758 31.8125ZM338.742 29.4062L338.367 28.4794L338.272 28.5176L338.187 28.5742L338.742 29.4062ZM343.664 27.2188L344.3 27.9907L344.519 27.8105L344.61 27.5424L343.664 27.2188ZM344.211 23.8281V22.8281H343.289L343.214 23.747L344.211 23.8281ZM344.32 23.6094H345.32V23.0887L344.894 22.7901L344.32 23.6094ZM325.945 35.9688V34.9688H324.945V35.9688H325.945ZM325.945 36.1875H324.945V37.1875H325.945V36.1875ZM326.711 36.625L326.086 37.4059L327.453 38.4995L327.701 36.7664L326.711 36.625ZM326.82 35.8594L327.81 36.0008L328.006 34.6273L326.641 34.8755L326.82 35.8594ZM323.758 54.6719V53.6719H322.758V54.6719H323.758ZM323.758 54.7812H322.758V55.491L323.428 55.7252L323.758 54.7812ZM340.492 59.4844V60.4844H340.758L340.988 60.3526L340.492 59.4844ZM341.258 58.9375H342.258V58.8125L342.227 58.6913L341.258 58.9375ZM333.602 46.25L334.366 45.6052L334.287 45.5113L334.187 45.4393L333.602 46.25ZM328.898 41.9844L329.603 41.2743L329.489 41.1615L329.346 41.0899L328.898 41.9844ZM328.68 41.875L329.127 40.9806L328.495 40.6644L327.986 41.1552L328.68 41.875ZM325.07 52.7031L324.108 52.4319L324.102 52.4525L324.097 52.4733L325.07 52.7031ZM329.227 12.7812L329.469 11.8111L329.35 11.7812H329.227V12.7812ZM330.648 19.5625H329.648V20.5625H330.648V19.5625ZM346.18 20.7656L345.648 21.6123L345.768 21.688L345.905 21.7271L346.18 20.7656ZM347.273 25.9062L346.294 25.7028L346.273 25.8035V25.9062H347.273ZM343.773 30.9375L344.145 31.866L344.156 31.8614L343.773 30.9375ZM337.758 33.5625L337.987 34.5359L338.096 34.5102L338.197 34.4609L337.758 33.5625ZM330.32 35.3125L330.091 34.3391L329.32 34.5205V35.3125H330.32ZM329.555 38.5938L328.587 38.3428L328.262 39.5938H329.555V38.5938ZM335.57 43.8438L334.872 44.5599L334.973 44.6577L335.096 44.7242L335.57 43.8438ZM338.305 47.0156L337.463 47.5559L337.489 47.5955L337.518 47.6326L338.305 47.0156ZM344.539 59.1562H345.539V59.1467L345.539 59.1371L344.539 59.1562ZM343.008 62V63H343.406L343.695 62.7263L343.008 62ZM341.586 62.7656V63.7656H341.872L342.114 63.6147L341.586 62.7656ZM338.086 62.7656L337.863 63.7404L337.973 63.7656H338.086V62.7656ZM323.867 58.2812L324.211 57.3421L324.177 57.3298L324.143 57.3199L323.867 58.2812ZM313.695 53.6875L314.227 52.8406L314.191 52.8179L314.153 52.7984L313.695 53.6875ZM313.477 49.8594L313.591 48.866L313.355 48.8387L313.132 48.9205L313.477 49.8594ZM317.523 52.1562L316.97 52.9893L317.037 53.0339L317.111 53.0672L317.523 52.1562ZM319.055 52.8125V53.8125H320.055V52.8125H319.055ZM319.055 52.7031L318.121 52.3455L318.055 52.5182V52.7031H319.055ZM320.914 45.7031V44.7031H320.092L319.933 45.5093L320.914 45.7031ZM321.352 44.1719L320.421 43.805L320.381 43.906L320.364 44.0132L321.352 44.1719ZM322.555 39.0312L323.545 39.1667L323.555 39.0993V39.0312H322.555ZM322.555 37.6094H323.555V37.0216L323.041 36.7357L322.555 37.6094ZM322.555 33.0156L322.766 33.9931L323.555 33.8228V33.0156H322.555ZM322.555 23.3906H323.555V21.8687L322.158 22.4728L322.555 23.3906ZM320.477 23.8281L320.234 24.7983L320.353 24.8281H320.477V23.8281ZM322.883 20L323.031 20.9889L323.883 20.8612V20H322.883ZM324.086 19.5625V18.5625H323.985L323.886 18.5828L324.086 19.5625ZM324.742 19.6719H323.742V20.8917L324.938 20.6525L324.742 19.6719ZM325.289 19.5625V18.5625H325.19L325.093 18.5819L325.289 19.5625ZM327.367 19.5625V20.5625H328.367V19.5625H327.367ZM327.367 14.9688L326.372 14.8692L326.367 14.9189V14.9688H327.367ZM324.836 22.8438V32.6875H326.836V22.8438H324.836ZM326.019 33.6706C326.826 33.5205 327.24 33.4688 327.367 33.4688V31.4688C327.02 31.4688 326.414 31.5628 325.653 31.7044L326.019 33.6706ZM328.367 32.4688V22.8438H326.367V32.4688H328.367ZM327.367 21.8438H325.836V23.8438H327.367V21.8438ZM329.648 22.8438V31.8125H331.648V22.8438H329.648ZM330.648 32.8125H330.758V30.8125H330.648V32.8125ZM330.949 32.7941C333.027 32.3895 334.758 31.9811 336.132 31.5668C337.487 31.1585 338.569 30.7236 339.297 30.2383L338.187 28.5742C337.712 28.891 336.862 29.2582 335.555 29.6519C334.268 30.0398 332.608 30.4334 330.567 30.8309L330.949 32.7941ZM339.117 30.3331C340.607 29.7301 341.772 29.2422 342.607 28.8708C343.024 28.6855 343.368 28.5254 343.633 28.3918C343.867 28.2737 344.124 28.1352 344.3 27.9907L343.028 26.4468C343.049 26.4299 342.985 26.4783 342.732 26.6063C342.509 26.7188 342.198 26.8639 341.795 27.0432C340.99 27.4011 339.849 27.8793 338.367 28.4794L339.117 30.3331ZM344.61 27.5424C344.89 26.724 345.079 25.4876 345.208 23.9093L343.214 23.747C343.087 25.3041 342.912 26.3281 342.718 26.8951L344.61 27.5424ZM344.211 24.8281C344.404 24.8281 344.618 24.7769 344.813 24.6465C345.003 24.5202 345.119 24.3575 345.187 24.2207C345.31 23.9752 345.32 23.7334 345.32 23.6094H343.32C343.32 23.6069 343.32 23.5815 343.327 23.5407C343.333 23.5025 343.35 23.4227 343.399 23.3262C343.449 23.2258 343.542 23.0904 343.704 22.9824C343.872 22.8702 344.054 22.8281 344.211 22.8281V24.8281ZM344.894 22.7901C344.558 22.5553 344.127 22.4081 343.696 22.303C343.245 22.1928 342.701 22.1072 342.074 22.0407C340.82 21.9078 339.158 21.8438 337.102 21.8438V23.8438C339.128 23.8438 340.711 23.9074 341.863 24.0296C342.44 24.0907 342.889 24.1646 343.222 24.2459C343.575 24.3321 343.718 24.4082 343.747 24.4286L344.894 22.7901ZM337.102 21.8438H330.648V23.8438H337.102V21.8438ZM324.945 35.9688V36.1875H326.945V35.9688H324.945ZM325.945 37.1875C325.825 37.1875 325.747 37.1595 325.733 37.1546C325.714 37.1477 325.718 37.1471 325.75 37.1651C325.814 37.2019 325.924 37.276 326.086 37.4059L327.336 35.8441C327.133 35.6824 326.933 35.5377 326.742 35.4286C326.588 35.3406 326.294 35.1875 325.945 35.1875V37.1875ZM327.701 36.7664L327.81 36.0008L325.83 35.718L325.721 36.4836L327.701 36.7664ZM326.641 34.8755C326.245 34.9475 326.03 34.9688 325.945 34.9688V36.9688C326.225 36.9688 326.593 36.9171 326.999 36.8432L326.641 34.8755ZM322.758 54.6719V54.7812H324.758V54.6719H322.758ZM323.428 55.7252C327.916 57.2943 331.439 58.4748 333.99 59.2639C335.264 59.6582 336.307 59.958 337.111 60.1602C337.877 60.3529 338.528 60.4844 338.961 60.4844V58.4844C338.811 58.4844 338.391 58.4199 337.598 58.2206C336.844 58.0309 335.84 57.7428 334.581 57.3533C332.064 56.5747 328.568 55.4036 324.088 53.8373L323.428 55.7252ZM338.961 60.4844H340.492V58.4844H338.961V60.4844ZM340.988 60.3526C341.252 60.2018 341.478 60.0635 341.648 59.9426C341.729 59.8847 341.828 59.8089 341.917 59.7198C341.961 59.6759 342.028 59.6039 342.09 59.5068C342.142 59.4251 342.258 59.2219 342.258 58.9375H340.258C340.258 58.7974 340.288 58.6839 340.316 58.6067C340.345 58.5293 340.378 58.4708 340.402 58.4331C340.448 58.3611 340.491 58.3176 340.503 58.3056C340.528 58.2803 340.532 58.2819 340.485 58.3152C340.399 58.3766 340.243 58.4753 339.996 58.6161L340.988 60.3526ZM342.227 58.6913C341.295 55.0224 338.624 50.652 334.366 45.6052L332.837 46.8948C337.038 51.874 339.47 55.962 340.289 59.1837L342.227 58.6913ZM334.187 45.4393C333.273 44.7793 331.755 43.4086 329.603 41.2743L328.194 42.6945C330.344 44.8257 331.961 46.2988 333.016 47.0607L334.187 45.4393ZM329.346 41.0899L329.127 40.9806L328.232 42.7694L328.451 42.8788L329.346 41.0899ZM327.986 41.1552C327.804 41.33 327.67 41.5561 327.575 41.7322C327.468 41.9306 327.358 42.1709 327.244 42.4431C327.016 42.989 326.75 43.7231 326.446 44.6349C325.837 46.462 325.057 49.0637 324.108 52.4319L326.033 52.9744C326.979 49.616 327.749 47.0497 328.343 45.2674C328.641 44.3745 328.889 43.6936 329.09 43.2141C329.19 42.9736 329.272 42.7986 329.337 42.6792C329.413 42.5374 329.428 42.543 329.374 42.5948L327.986 41.1552ZM324.097 52.4733C323.953 53.084 323.8 53.442 323.678 53.625C323.564 53.7948 323.584 53.6719 323.758 53.6719V55.6719C324.497 55.6719 325.018 55.2208 325.342 54.7344C325.657 54.2611 325.878 53.6348 326.044 52.9329L324.097 52.4733ZM328.984 13.7514C329.358 13.8448 329.523 13.9584 329.586 14.0216C329.623 14.0587 329.648 14.095 329.648 14.2031H331.648C331.648 13.6003 331.437 13.0441 331 12.6073C330.589 12.1965 330.043 11.9547 329.469 11.8111L328.984 13.7514ZM329.648 14.2031V19.5625H331.648V14.2031H329.648ZM330.648 20.5625H336.883V18.5625H330.648V20.5625ZM336.883 20.5625C339.322 20.5625 341.28 20.6622 342.77 20.855C344.298 21.0527 345.205 21.3341 345.648 21.6123L346.712 19.919C345.878 19.3951 344.598 19.0749 343.027 18.8716C341.418 18.6633 339.365 18.5625 336.883 18.5625V20.5625ZM345.905 21.7271C346.324 21.8467 346.529 21.9827 346.621 22.0743C346.687 22.1398 346.711 22.1945 346.711 22.2969H348.711C348.711 21.6701 348.48 21.105 348.035 20.6601C347.616 20.2412 347.057 19.9762 346.454 19.8041L345.905 21.7271ZM346.711 22.2969V22.4062H348.711V22.2969H346.711ZM346.711 22.4062C346.711 23.2413 346.579 24.3343 346.294 25.7028L348.253 26.1097C348.551 24.671 348.711 23.4305 348.711 22.4062H346.711ZM346.273 25.9062C346.273 26.9315 346.026 27.74 345.578 28.384C345.127 29.032 344.422 29.5864 343.391 30.0136L344.156 31.8614C345.458 31.3224 346.503 30.5553 347.219 29.5261C347.938 28.4931 348.273 27.269 348.273 25.9062H346.273ZM343.402 30.009C341.018 30.9628 338.988 31.8479 337.319 32.6641L338.197 34.4609C339.809 33.673 341.79 32.808 344.145 31.866L343.402 30.009ZM337.529 32.5891L330.091 34.3391L330.549 36.2859L337.987 34.5359L337.529 32.5891ZM329.32 35.3125C329.32 35.2543 329.326 35.2682 329.291 35.4498C329.262 35.5963 329.218 35.8014 329.155 36.0696C329.03 36.6047 328.841 37.3611 328.587 38.3428L330.523 38.8447C330.779 37.8577 330.972 37.0828 331.103 36.5241C331.168 36.2455 331.219 36.0131 331.254 35.8315C331.283 35.6849 331.32 35.48 331.32 35.3125H329.32ZM329.555 39.5938C329.337 39.5938 329.221 39.5076 329.314 39.557C329.36 39.5821 329.447 39.6356 329.581 39.7327C329.847 39.9247 330.223 40.2294 330.716 40.6597C331.697 41.5164 333.081 42.8136 334.872 44.5599L336.268 43.1276C334.469 41.3739 333.054 40.0461 332.031 39.1528C331.521 38.7081 331.092 38.3565 330.752 38.111C330.583 37.9894 330.416 37.8789 330.259 37.7945C330.147 37.7346 329.877 37.5938 329.555 37.5938V39.5938ZM335.096 44.7242C335.293 44.8303 335.604 45.0833 336.03 45.5768C336.444 46.0575 336.922 46.7129 337.463 47.5559L339.146 46.4753C338.576 45.5866 338.042 44.8474 337.545 44.2709C337.058 43.7071 336.558 43.24 336.044 42.9633L335.096 44.7242ZM337.518 47.6326C339.545 50.2191 341.05 52.4838 342.05 54.4314C343.056 56.3906 343.516 57.9606 343.539 59.1754L345.539 59.1371C345.507 57.4899 344.901 55.6054 343.829 53.5178C342.751 51.4185 341.165 49.0439 339.092 46.3987L337.518 47.6326ZM343.539 59.1562V59.8125H345.539V59.1562H343.539ZM343.539 59.8125C343.539 59.7452 343.557 59.8402 343.337 60.1551C343.136 60.4422 342.807 60.8137 342.32 61.2737L343.695 62.7263C344.23 62.2202 344.666 61.744 344.975 61.302C345.265 60.8877 345.539 60.372 345.539 59.8125H343.539ZM343.008 61C342.849 61 342.719 61.0354 342.658 61.0536C342.584 61.0758 342.514 61.1028 342.457 61.1273C342.341 61.1764 342.213 61.2405 342.083 61.3109C341.818 61.4533 341.474 61.6575 341.058 61.9166L342.114 63.6147C342.518 63.3633 342.821 63.1847 343.031 63.0719C343.137 63.0147 343.203 62.9831 343.238 62.9684C343.255 62.961 343.25 62.9641 343.229 62.9703C343.222 62.9726 343.135 63 343.008 63V61ZM341.586 61.7656H338.086V63.7656H341.586V61.7656ZM338.309 61.7909C334.87 61.0026 330.176 59.5244 324.211 57.3421L323.524 59.2204C329.517 61.4131 334.302 62.9244 337.863 63.7404L338.309 61.7909ZM324.143 57.3199C320.739 56.3448 317.434 54.8537 314.227 52.8406L313.164 54.5344C316.519 56.6411 319.996 58.2125 323.592 59.2426L324.143 57.3199ZM314.153 52.7984C312.957 52.1829 312.836 51.7416 312.836 51.6094H310.836C310.836 52.9719 311.954 53.9161 313.238 54.5766L314.153 52.7984ZM312.836 51.6094C312.836 51.4719 312.88 51.1432 313.821 50.7983L313.132 48.9205C311.885 49.3777 310.836 50.2156 310.836 51.6094H312.836ZM313.362 50.8528C313.318 50.8477 313.372 50.8496 313.586 50.9456C313.774 51.0304 314.027 51.1609 314.35 51.3443C314.995 51.7103 315.866 52.2562 316.97 52.9893L318.077 51.3232C316.957 50.5797 316.041 50.0045 315.337 49.6049C314.986 49.4055 314.674 49.242 314.406 49.1218C314.164 49.0127 313.872 48.8984 313.591 48.866L313.362 50.8528ZM317.111 53.0672C317.596 53.2867 317.972 53.4541 318.237 53.5676C318.368 53.6238 318.48 53.6703 318.567 53.7041C318.61 53.7205 318.658 53.7383 318.704 53.7535C318.727 53.7609 318.761 53.7715 318.801 53.7812C318.82 53.7859 318.924 53.8125 319.055 53.8125V51.8125C319.179 51.8125 319.272 51.8374 319.277 51.8386C319.303 51.845 319.32 51.8505 319.321 51.851C319.326 51.8525 319.317 51.8499 319.289 51.8389C319.235 51.818 319.149 51.7825 319.025 51.7293C318.779 51.624 318.417 51.4633 317.936 51.2453L317.111 53.0672ZM320.055 52.8125V52.7031H318.055V52.8125H320.055ZM319.989 53.0608C320.674 51.2713 321.307 48.8754 321.895 45.8969L319.933 45.5093C319.355 48.4371 318.748 50.7079 318.121 52.3455L319.989 53.0608ZM320.914 46.7031C321.284 46.7031 321.536 46.5155 321.657 46.3986C321.779 46.2813 321.853 46.1568 321.895 46.0796C321.98 45.9213 322.038 45.7445 322.081 45.595C322.17 45.2811 322.255 44.8508 322.339 44.3306L320.364 44.0132C320.284 44.5138 320.214 44.8491 320.158 45.0456C320.127 45.1513 320.115 45.166 320.132 45.1352C320.139 45.1219 320.18 45.0452 320.268 44.9598C320.356 44.8748 320.576 44.7031 320.914 44.7031V46.7031ZM322.282 44.5387C322.833 43.1412 323.248 41.3407 323.545 39.1667L321.564 38.8958C321.278 40.9874 320.891 42.614 320.421 43.805L322.282 44.5387ZM323.555 39.0312V37.6094H321.555V39.0312H323.555ZM323.041 36.7357C322.287 36.3159 321.788 35.9351 321.487 35.6075C321.19 35.2829 321.148 35.0801 321.148 34.9844H319.148C319.148 35.7455 319.508 36.4085 320.013 36.9589C320.515 37.5063 321.218 38.0096 322.068 38.4831L323.041 36.7357ZM321.148 34.9844C321.148 34.8253 321.195 34.6955 321.383 34.5415C321.61 34.3556 322.037 34.1504 322.766 33.9931L322.344 32.0381C321.468 32.2272 320.692 32.5233 320.117 32.9936C319.503 33.4959 319.148 34.1773 319.148 34.9844H321.148ZM323.555 33.0156V23.3906H321.555V33.0156H323.555ZM322.158 22.4728C321.573 22.7258 321.09 22.8281 320.695 22.8281V24.8281C321.431 24.8281 322.188 24.6388 322.952 24.3085L322.158 22.4728ZM320.695 22.8281H320.477V24.8281H320.695V22.8281ZM320.719 22.858C320.345 22.7646 320.18 22.6509 320.117 22.5878C320.08 22.5506 320.055 22.5144 320.055 22.4062H318.055C318.055 23.0091 318.266 23.5653 318.703 24.002C319.114 24.4129 319.66 24.6547 320.234 24.7983L320.719 22.858ZM320.055 22.4062V22.0781H318.055V22.4062H320.055ZM320.055 22.0781C320.055 22.0575 320.056 22.035 320.093 21.9857C320.141 21.9222 320.252 21.814 320.489 21.6855C320.974 21.422 321.795 21.1743 323.031 20.9889L322.734 19.0111C321.418 19.2085 320.325 19.4985 319.535 19.9278C318.735 20.3616 318.055 21.0575 318.055 22.0781H320.055ZM323.883 20C323.883 20.2599 323.778 20.4507 323.698 20.5557C323.623 20.6551 323.548 20.7089 323.521 20.7271C323.47 20.7624 323.454 20.7607 323.525 20.7347C323.655 20.6875 323.898 20.6216 324.286 20.5422L323.886 18.5828C323.472 18.6675 323.113 18.7565 322.842 18.8551C322.713 18.9021 322.547 18.971 322.395 19.0747C322.304 19.1361 321.883 19.4307 321.883 20H323.883ZM324.086 20.5625H324.414V18.5625H324.086V20.5625ZM324.414 20.5625C324.494 20.5625 324.446 20.5724 324.344 20.5385C324.29 20.5207 324.151 20.4678 324.015 20.3311C323.853 20.1699 323.742 19.9362 323.742 19.6719H325.742C325.742 18.9712 325.162 18.7029 324.976 18.6412C324.765 18.5708 324.553 18.5625 324.414 18.5625V20.5625ZM324.938 20.6525L325.485 20.5431L325.093 18.5819L324.546 18.6913L324.938 20.6525ZM325.289 20.5625H327.367V18.5625H325.289V20.5625ZM328.367 19.5625V14.9688H326.367V19.5625H328.367ZM328.362 15.0683C328.429 14.4027 328.561 14.0417 328.67 13.8731C328.695 13.8359 328.714 13.8139 328.726 13.8018C328.738 13.7901 328.745 13.7865 328.745 13.7862C328.745 13.786 328.746 13.7857 328.749 13.7848C328.753 13.7839 328.765 13.7812 328.789 13.7812V11.7812C328.017 11.7812 327.397 12.1632 326.994 12.7831C326.629 13.3437 326.451 14.0765 326.372 14.8692L328.362 15.0683ZM328.789 13.7812H329.227V11.7812H328.789V13.7812ZM381.59 15.0781L381.832 14.108L381.713 14.0781H381.59V15.0781ZM383.012 16.8281L383.986 17.053L384.012 16.942V16.8281H383.012ZM381.699 22.5156L382.618 22.9095L382.654 22.8275L382.674 22.7405L381.699 22.5156ZM379.949 32.4688L380.913 32.7364L380.929 32.677L380.938 32.6161L379.949 32.4688ZM377.98 44.8281V45.8281H378.882L378.975 44.9315L377.98 44.8281ZM377.543 46.7969L376.557 46.6325L376.439 47.3351L377.065 47.6754L377.543 46.7969ZM385.527 50.4062L385.922 49.4876L385.887 49.4723L385.85 49.4597L385.527 50.4062ZM388.262 52.375H387.262V53.375H388.262V52.375ZM388.371 53.0312L389.341 53.2738L389.371 53.1544V53.0312H388.371ZM382.027 52.5938L382.429 51.678L382.276 51.611L382.11 51.5972L382.027 52.5938ZM376.996 50.1875L377.494 49.3203L376.187 48.5695L376.004 50.066L376.996 50.1875ZM376.34 55.5469L375.347 55.4253L375.34 55.4859V55.5469H376.34ZM376.34 55.9844L377.234 56.4316L377.34 56.2204V55.9844H376.34ZM376.23 56.2031L375.336 55.7559L374.941 56.5455L375.676 57.0352L376.23 56.2031ZM376.887 60.6875L377.877 60.8289L377.887 60.7586V60.6875H376.887ZM376.449 63.75L377.436 63.9104L377.438 63.9009L377.439 63.8914L376.449 63.75ZM372.949 64.4062L371.965 64.2274L371.919 64.4822L372.002 64.7275L372.949 64.4062ZM373.168 62.6562H374.168V62.5162L374.129 62.3815L373.168 62.6562ZM372.73 57.625L371.739 57.4947L371.718 57.652L371.747 57.8079L372.73 57.625ZM374.043 48.5469L375.022 48.7495L375.164 48.0632L374.568 47.6955L374.043 48.5469ZM364.199 42.8594L364.618 41.9511L363.874 41.6085L363.391 42.27L364.199 42.8594ZM356.98 55.3281L356.095 54.864L356.065 54.9205L356.043 54.9803L356.98 55.3281ZM352.824 62.1094L352.582 63.0795L352.701 63.1094H352.824V62.1094ZM351.402 60.1406L350.476 59.764L350.402 59.9451V60.1406H351.402ZM355.34 51.1719L354.471 50.6765L354.465 50.6877L354.459 50.6991L355.34 51.1719ZM360.371 42.75V41.75H359.855L359.556 42.1701L360.371 42.75ZM361.355 41.4375L362.196 41.98L362.355 41.7323V41.4375H361.355ZM361.355 41.3281H362.355V40.806L361.927 40.5076L361.355 41.3281ZM353.918 36.4062L354.491 35.587L354.268 35.4305L353.996 35.4093L353.918 36.4062ZM354.137 33.125V32.125H354.074L354.013 32.1327L354.137 33.125ZM357.199 34.6562L356.591 35.4497L356.732 35.5584L356.903 35.6113L357.199 34.6562ZM361.465 37.5L360.866 38.3008L361.013 38.411L361.19 38.4615L361.465 37.5ZM363.324 38.5938L362.795 39.4425L363.639 39.9678L364.17 39.128L363.324 38.5938ZM373.168 22.4062L372.357 21.8215L372.321 21.8717L372.291 21.9259L373.168 22.4062ZM378.855 16.6094L379.077 17.5845L379.574 17.4716L379.775 17.0033L378.855 16.6094ZM379.84 16.1719L380.103 17.1366L380.523 17.0221L380.725 16.6367L379.84 16.1719ZM378.637 20.6562V19.6562H378.167L377.867 20.0183L378.637 20.6562ZM375.355 25.25L376.218 25.7568L376.287 25.6385L376.322 25.5059L375.355 25.25ZM366.168 40.125L365.348 39.5523L364.249 41.125H366.168V40.125ZM374.59 44.9375L374.084 45.8L375.367 46.5529L375.58 45.0803L374.59 44.9375ZM376.121 34.3281L375.153 34.0791L375.139 34.1316L375.131 34.1853L376.121 34.3281ZM378.309 21.9688V20.9688H377.44L377.318 21.8291L378.309 21.9688ZM378.746 20.6562L379.711 20.9177L380.053 19.6562H378.746V20.6562ZM381.262 16.0781H381.59V14.0781H381.262V16.0781ZM381.347 16.0483C381.721 16.1417 381.886 16.2553 381.949 16.3184C381.986 16.3556 382.012 16.3919 382.012 16.5H384.012C384.012 15.8972 383.8 15.341 383.363 14.9042C382.953 14.4934 382.407 14.2515 381.832 14.108L381.347 16.0483ZM382.012 16.5V16.8281H384.012V16.5H382.012ZM382.037 16.6033L380.725 22.2908L382.674 22.7405L383.986 17.053L382.037 16.6033ZM380.78 22.1217C380.668 22.3836 380.563 22.8045 380.459 23.2849C380.348 23.7977 380.219 24.4742 380.072 25.3093C379.778 26.9809 379.407 29.3197 378.96 32.3214L380.938 32.6161C381.384 29.6204 381.752 27.3016 382.042 25.6556C382.186 24.8318 382.31 24.1844 382.413 23.7083C382.465 23.47 382.51 23.2818 382.548 23.1396C382.567 23.0688 382.583 23.0136 382.597 22.9722C382.603 22.9517 382.608 22.9361 382.613 22.9249C382.617 22.9135 382.619 22.9088 382.618 22.9095L380.78 22.1217ZM378.986 32.2011C378.233 34.9111 377.57 39.1004 376.986 44.7248L378.975 44.9315C379.557 39.3267 380.207 35.2764 380.913 32.7364L378.986 32.2011ZM377.98 43.8281C377.59 43.8281 377.345 44.043 377.259 44.1287C377.16 44.2273 377.102 44.3252 377.076 44.3732C377.019 44.4753 376.983 44.5755 376.963 44.6349C376.919 44.7672 376.879 44.9308 376.84 45.1034C376.761 45.4585 376.667 45.9721 376.557 46.6325L378.529 46.9613C378.638 46.3091 378.726 45.8384 378.793 45.5372C378.827 45.3817 378.85 45.2992 378.861 45.2674C378.868 45.2449 378.858 45.2835 378.824 45.3445C378.809 45.372 378.761 45.4546 378.673 45.5429C378.598 45.6184 378.361 45.8281 377.98 45.8281V43.8281ZM377.065 47.6754C380.017 49.2807 382.732 50.5097 385.205 51.3528L385.85 49.4597C383.511 48.6622 380.902 47.485 378.021 45.9184L377.065 47.6754ZM385.132 51.3249C386.019 51.7064 386.626 52.0327 386.994 52.2979C387.178 52.4306 387.265 52.5215 387.298 52.5643C387.332 52.6082 387.262 52.5384 387.262 52.375H389.262C389.262 51.9473 389.078 51.5972 388.883 51.3449C388.689 51.0915 388.434 50.8702 388.162 50.6748C387.619 50.2837 386.858 49.89 385.922 49.4876L385.132 51.3249ZM388.262 53.375C387.997 53.375 387.764 53.2639 387.602 53.1026C387.466 52.9659 387.413 52.8269 387.395 52.7733C387.361 52.6716 387.371 52.6229 387.371 52.7031H389.371C389.371 52.5646 389.363 52.3518 389.292 52.1408C389.231 51.9555 388.962 51.375 388.262 51.375V53.375ZM387.371 52.7031V53.0312H389.371V52.7031H387.371ZM387.401 52.7887C387.308 53.1624 387.194 53.3274 387.131 53.3905C387.094 53.4277 387.057 53.4531 386.949 53.4531V55.4531C387.552 55.4531 388.108 55.2415 388.545 54.8048C388.956 54.3939 389.198 53.848 389.341 53.2738L387.401 52.7887ZM386.949 53.4531H386.621V55.4531H386.949V53.4531ZM386.621 53.4531C386.742 53.4531 386.811 53.4803 386.738 53.4602C386.699 53.4493 386.632 53.4284 386.531 53.3932C386.332 53.3235 386.047 53.2141 385.67 53.0613C384.918 52.7569 383.839 52.2966 382.429 51.678L381.626 53.5095C383.041 54.1305 384.141 54.5999 384.92 54.9152C385.308 55.0724 385.627 55.1954 385.87 55.2806C385.991 55.3229 386.104 55.3601 386.205 55.3879C386.272 55.4065 386.441 55.4531 386.621 55.4531V53.4531ZM382.11 51.5972C382.111 51.5972 382.108 51.597 382.102 51.5962C382.097 51.5954 382.089 51.5941 382.078 51.5921C382.056 51.5881 382.027 51.5816 381.99 51.5716C381.913 51.5513 381.814 51.5199 381.688 51.4739C381.437 51.3815 381.112 51.2419 380.709 51.049C379.903 50.6636 378.834 50.0897 377.494 49.3203L376.498 51.0547C377.856 51.8348 378.975 52.4367 379.846 52.8533C380.281 53.0614 380.667 53.2295 380.999 53.3513C381.314 53.4671 381.644 53.5652 381.944 53.5903L382.11 51.5972ZM376.004 50.066L375.347 55.4253L377.332 55.6684L377.989 50.309L376.004 50.066ZM375.34 55.5469V55.9844H377.34V55.5469H375.34ZM375.445 55.5372L375.336 55.7559L377.125 56.6503L377.234 56.4316L375.445 55.5372ZM375.676 57.0352C375.8 57.1179 375.848 57.1809 375.865 57.2098C375.878 57.232 375.887 57.2539 375.887 57.2969H377.887C377.887 56.4543 377.436 55.8052 376.785 55.3711L375.676 57.0352ZM375.887 57.2969V60.6875H377.887V57.2969H375.887ZM375.897 60.5461L375.459 63.6086L377.439 63.8914L377.877 60.8289L375.897 60.5461ZM375.462 63.5896C375.355 64.2475 375.196 64.6117 375.061 64.7906C374.963 64.9221 374.9 64.9375 374.809 64.9375V66.9375C375.574 66.9375 376.213 66.5883 376.661 65.9906C377.074 65.4404 377.306 64.7109 377.436 63.9104L375.462 63.5896ZM374.809 64.9375H374.48V66.9375H374.809V64.9375ZM374.48 64.9375C374.428 64.9375 374.381 64.9298 374.299 64.8476C374.192 64.7411 374.042 64.5158 373.896 64.085L372.002 64.7275C372.391 65.8723 373.141 66.9375 374.48 66.9375V64.9375ZM373.933 64.5851C374.08 63.778 374.168 63.1181 374.168 62.6562H372.168C372.168 62.9236 372.11 63.4303 371.965 64.2274L373.933 64.5851ZM374.129 62.3815C373.999 61.9237 373.949 61.5837 373.949 61.3438H371.949C371.949 61.833 372.046 62.368 372.206 62.931L374.129 62.3815ZM373.949 61.3438V59.1562H371.949V61.3438H373.949ZM373.949 59.1562C373.949 58.8092 373.855 58.2028 373.714 57.4421L371.747 57.8079C371.897 58.6149 371.949 59.0294 371.949 59.1562H373.949ZM373.722 57.7553C374.38 52.7432 374.813 49.7618 375.022 48.7495L373.064 48.3443C372.836 49.4465 372.393 52.5173 371.739 57.4947L373.722 57.7553ZM374.568 47.6955C369.639 44.6585 366.305 42.7285 364.618 41.9511L363.781 43.7676C365.338 44.4851 368.567 46.3467 373.518 49.3982L374.568 47.6955ZM363.391 42.27C361.72 44.5606 359.284 48.7774 356.095 54.864L357.866 55.7922C361.057 49.7018 363.433 45.606 365.007 43.4487L363.391 42.27ZM356.043 54.9803C355.208 57.23 354.514 58.88 353.959 59.9554C353.679 60.4981 353.455 60.8527 353.29 61.0578C353.207 61.1607 353.165 61.1929 353.166 61.1922C353.169 61.1902 353.195 61.1714 353.244 61.152C353.295 61.132 353.376 61.1094 353.48 61.1094V63.1094C353.85 63.1094 354.144 62.9527 354.335 62.8146C354.532 62.6726 354.702 62.493 354.847 62.3133C355.137 61.9533 355.433 61.4602 355.736 60.8727C356.348 59.6877 357.076 57.9471 357.918 55.6759L356.043 54.9803ZM353.48 61.1094H352.824V63.1094H353.48V61.1094ZM353.067 61.1392C352.693 61.0458 352.528 60.9322 352.465 60.8691C352.428 60.8319 352.402 60.7956 352.402 60.6875H350.402C350.402 61.2903 350.614 61.8465 351.051 62.2833C351.462 62.6941 352.007 62.936 352.582 63.0795L353.067 61.1392ZM352.402 60.6875V60.1406H350.402V60.6875H352.402ZM352.329 60.5172C354.154 56.0264 355.448 53.0854 356.221 51.6447L354.459 50.6991C353.628 52.248 352.296 55.2861 350.476 59.764L352.329 60.5172ZM356.209 51.6673C358.806 47.1122 360.456 44.3553 361.186 43.3299L359.556 42.1701C358.755 43.2957 357.051 46.1535 354.471 50.6765L356.209 51.6673ZM360.371 43.75C360.722 43.75 360.962 43.5695 361.005 43.5382C361.092 43.4749 361.161 43.407 361.206 43.3599C361.3 43.2618 361.395 43.1423 361.486 43.0219C361.671 42.7746 361.909 42.423 362.196 41.98L360.515 40.895C360.236 41.327 360.028 41.6316 359.886 41.8219C359.812 41.9202 359.773 41.9647 359.762 41.9761C359.755 41.9837 359.779 41.9568 359.828 41.9208C359.854 41.9023 359.905 41.8672 359.978 41.8339C360.046 41.8032 360.185 41.75 360.371 41.75V43.75ZM362.355 41.4375V41.3281H360.355V41.4375H362.355ZM361.927 40.5076C360.304 39.3772 359.081 38.5283 358.259 37.9616C357.848 37.6786 357.535 37.4644 357.321 37.3201C357.214 37.2486 357.128 37.1912 357.065 37.1504C357.035 37.1309 357.002 37.1099 356.971 37.0918C356.958 37.0837 356.932 37.0684 356.901 37.0524C356.887 37.0451 356.855 37.0291 356.814 37.0124C356.794 37.0041 356.757 36.9899 356.711 36.9765C356.677 36.9669 356.572 36.9375 356.434 36.9375V38.9375C356.296 38.9375 356.191 38.9082 356.159 38.8989C356.113 38.8857 356.078 38.872 356.059 38.8643C356.021 38.8487 355.993 38.8343 355.983 38.8292C355.97 38.8226 355.96 38.8173 355.956 38.8148C355.951 38.8121 355.948 38.8102 355.947 38.8097C355.946 38.8092 355.956 38.8147 355.98 38.8305C356.026 38.8604 356.099 38.909 356.203 38.9787C356.408 39.117 356.715 39.3266 357.124 39.6087C357.942 40.1722 359.162 41.0187 360.784 42.1487L361.927 40.5076ZM356.434 36.9375C356.512 36.9375 356.57 36.9483 356.596 36.9539C356.625 36.9602 356.642 36.9661 356.646 36.9672C356.651 36.9689 356.634 36.9632 356.588 36.9412C356.498 36.8977 356.358 36.8208 356.161 36.7005C355.769 36.4618 355.215 36.0933 354.491 35.587L353.345 37.2255C354.08 37.74 354.674 38.1371 355.121 38.4089C355.342 38.5438 355.544 38.6583 355.719 38.7423C355.805 38.7842 355.901 38.8264 355.999 38.8599C356.08 38.8876 356.241 38.9375 356.434 38.9375V36.9375ZM353.996 35.4093C353.51 35.3714 353.305 35.2621 353.236 35.2063C353.209 35.1846 353.2 35.1691 353.193 35.1537C353.185 35.1346 353.168 35.0848 353.168 34.9844H351.168C351.168 35.6665 351.415 36.3036 351.975 36.7585C352.49 37.1767 353.159 37.35 353.84 37.4032L353.996 35.4093ZM353.168 34.9844V34.6562H351.168V34.9844H353.168ZM353.168 34.6562C353.168 34.5723 353.183 34.5306 353.193 34.5113C353.201 34.493 353.22 34.4621 353.274 34.4202C353.4 34.3226 353.687 34.1889 354.261 34.1173L354.013 32.1327C353.274 32.2251 352.577 32.4287 352.046 32.8415C351.466 33.2928 351.168 33.9303 351.168 34.6562H353.168ZM354.137 34.125C354.271 34.125 354.542 34.179 354.988 34.4022C355.422 34.6191 355.955 34.9618 356.591 35.4497L357.808 33.8628C357.113 33.3299 356.47 32.9069 355.883 32.6134C355.308 32.3262 354.714 32.125 354.137 32.125V34.125ZM356.903 35.6113C356.902 35.6111 356.911 35.6138 356.93 35.6217C356.949 35.6294 356.975 35.6407 357.007 35.6565C357.074 35.6883 357.16 35.7336 357.268 35.795C357.484 35.9182 357.762 36.0923 358.107 36.3223C358.797 36.7817 359.714 37.4394 360.866 38.3008L362.064 36.6992C360.9 35.8288 359.95 35.1467 359.217 34.6582C358.851 34.4142 358.53 34.2123 358.258 34.0575C358.002 33.9114 357.736 33.7759 357.496 33.7012L356.903 35.6113ZM361.19 38.4615C361.1 38.4357 361.066 38.4088 361.18 38.47C361.257 38.5112 361.368 38.5743 361.518 38.6627C361.817 38.8386 362.242 39.0977 362.795 39.4425L363.853 37.745C363.295 37.3971 362.853 37.1276 362.532 36.9388C362.373 36.8449 362.236 36.7668 362.126 36.7077C362.053 36.6687 361.894 36.5825 361.74 36.5385L361.19 38.4615ZM364.17 39.128C369.054 31.4006 372.351 25.9801 374.045 22.8866L372.291 21.9259C370.631 24.9574 367.365 30.3286 362.479 38.0595L364.17 39.128ZM373.979 22.991C375.26 21.2141 376.348 19.8788 377.245 18.964C378.185 18.0063 378.783 17.6514 379.077 17.5845L378.634 15.6342C377.725 15.8408 376.774 16.5887 375.817 17.5633C374.819 18.5808 373.665 20.0072 372.357 21.8215L373.979 22.991ZM379.775 17.0033C379.725 17.1197 379.661 17.1983 379.621 17.2421C379.579 17.2867 379.544 17.3131 379.529 17.324C379.501 17.3437 379.5 17.3399 379.549 17.3181C379.645 17.2754 379.821 17.2135 380.103 17.1366L379.577 15.2071C379.257 15.2943 378.968 15.3874 378.736 15.4905C378.621 15.5416 378.49 15.6084 378.367 15.6965C378.261 15.7718 378.056 15.9356 377.936 16.2155L379.775 17.0033ZM380.725 16.6367C381.024 16.0681 381.226 16.0781 381.262 16.0781V14.0781C380.167 14.0781 379.422 14.8173 378.954 15.707L380.725 16.6367ZM377.867 20.0183C376.848 21.2475 376.052 22.2618 375.485 23.0555C375.202 23.4519 374.968 23.8048 374.79 24.1095C374.621 24.3976 374.465 24.7043 374.389 24.9941L376.322 25.5059C376.322 25.5079 376.324 25.4998 376.331 25.4799C376.339 25.4605 376.35 25.4336 376.366 25.3985C376.4 25.3276 376.448 25.2352 376.516 25.119C376.652 24.886 376.849 24.5871 377.113 24.218C377.639 23.4804 378.402 22.5077 379.407 21.2942L377.867 20.0183ZM374.493 24.7432C370.227 32.0003 367.182 36.927 365.348 39.5523L366.988 40.6977C368.872 38.0001 371.953 33.0101 376.218 25.7568L374.493 24.7432ZM366.168 41.125C366.068 41.125 365.993 41.1096 365.963 41.103C365.926 41.095 365.898 41.0864 365.884 41.0818C365.868 41.0767 365.856 41.0724 365.85 41.0702C365.844 41.0679 365.841 41.0663 365.84 41.0661C365.839 41.0658 365.844 41.0679 365.856 41.0736C365.868 41.079 365.884 41.0866 365.904 41.0966C365.988 41.1382 366.118 41.2061 366.299 41.3045C366.659 41.4998 367.187 41.7963 367.887 42.1964C369.285 42.9955 371.35 44.1963 374.084 45.8L375.096 44.075C372.361 42.4703 370.288 41.2649 368.879 40.4599C368.175 40.0579 367.633 39.7528 367.254 39.5471C367.066 39.4449 366.909 39.3625 366.791 39.3038C366.733 39.2752 366.671 39.2458 366.613 39.2215C366.585 39.2097 366.543 39.193 366.495 39.1776C366.479 39.1723 366.342 39.125 366.168 39.125V41.125ZM375.58 45.0803L377.111 34.471L375.131 34.1853L373.6 44.7947L375.58 45.0803ZM377.09 34.5772C377.761 31.9672 378.496 27.8003 379.299 22.1084L377.318 21.8291C376.517 27.5122 375.794 31.5849 375.153 34.0791L377.09 34.5772ZM378.309 22.9688C378.645 22.9688 378.87 22.8061 378.957 22.734C379.056 22.6524 379.119 22.5694 379.149 22.5263C379.213 22.4369 379.254 22.3503 379.276 22.3034C379.324 22.1986 379.368 22.0755 379.408 21.9569C379.49 21.7101 379.592 21.3596 379.711 20.9177L377.781 20.3948C377.664 20.8279 377.574 21.1336 377.51 21.3244C377.495 21.3708 377.482 21.4065 377.472 21.4331C377.462 21.4609 377.457 21.4715 377.458 21.4701C377.458 21.469 377.462 21.4602 377.47 21.4463C377.476 21.4339 377.492 21.4058 377.517 21.3702C377.538 21.3407 377.592 21.268 377.682 21.1932C377.761 21.128 377.979 20.9688 378.309 20.9688V22.9688ZM378.746 19.6562H378.637V21.6562H378.746V19.6562ZM402.672 15.0234L402.922 14.0553L402.799 14.0234H402.672V15.0234ZM400.922 33.1797L401.863 33.5184L401.868 33.5034L401.873 33.4883L400.922 33.1797ZM396.355 48.7383L395.394 48.4623L395.107 49.4637L396.119 49.7099L396.355 48.7383ZM406.117 50.2422L406.004 51.2358L407.117 51.3625V50.2422H406.117ZM406.117 49.4766L405.125 49.3525L405.117 49.4143V49.4766H406.117ZM406.855 41.2734L406.006 40.7451L405.865 40.972L405.856 41.239L406.855 41.2734ZM408.852 40.043L409.082 39.07L408.969 39.043H408.852V40.043ZM410.465 43.7617L411.459 43.8704L411.465 43.8162V43.7617H410.465ZM410.082 48.3555L411.045 48.6262L411.082 48.4934V48.3555H410.082ZM409.836 50.8438H408.836V51.8438H409.836V50.8438ZM409.945 50.8438L410.076 49.8524L410.011 49.8438H409.945V50.8438ZM417.492 51.9648L417.293 52.9448L417.392 52.9648H417.492V51.9648ZM417.875 52.1016L417.389 52.9757L418.875 53.8011V52.1016H417.875ZM418.75 37.1719L419.727 37.3832L419.74 37.3246L419.746 37.265L418.75 37.1719ZM420.855 22.4883L421.072 21.5121L420.797 21.4509L420.53 21.5426L420.855 22.4883ZM421.703 42.6406L420.714 42.4957L420.705 42.5523L420.704 42.6094L421.703 42.6406ZM421.594 54.5898L422.563 54.8362L422.594 54.715V54.5898H421.594ZM419.352 56.2031L419.083 57.1665L419.215 57.2031H419.352V56.2031ZM412.051 54.9727L411.837 55.9496L411.901 55.9635L411.966 55.969L412.051 54.9727ZM396.957 52.7305L396.722 53.7025L396.772 53.7145L396.823 53.7214L396.957 52.7305ZM393.129 51.6094L392.41 52.3044L392.501 52.3991L392.614 52.4669L393.129 51.6094ZM392.145 49.8594L391.185 49.5785L391.115 49.8173L391.165 50.061L392.145 49.8594ZM399.828 23.6094L400.788 23.8903L400.801 23.8469L400.809 23.8026L399.828 23.6094ZM400.676 16.2539L399.818 15.7394L399.7 15.9366L399.68 16.1656L400.676 16.2539ZM402.289 16.0234H402.672V14.0234H402.289V16.0234ZM402.421 15.9916C402.849 16.1021 403.056 16.2388 403.148 16.3329C403.216 16.402 403.258 16.4795 403.258 16.6367H405.258C405.258 15.9919 405.035 15.3995 404.574 14.9308C404.138 14.4871 403.552 14.2183 402.922 14.0553L402.421 15.9916ZM403.258 16.6367C403.258 20.6571 402.182 26.0553 399.971 32.8711L401.873 33.4883C404.109 26.5957 405.258 20.9653 405.258 16.6367H403.258ZM399.981 32.841C399.638 33.7932 398.102 39.0292 395.394 48.4623L397.317 49.0142C400.041 39.5255 401.549 34.3891 401.863 33.5184L399.981 32.841ZM396.119 49.7099C398.208 50.218 401.515 50.7248 406.004 51.2358L406.23 49.2486C401.751 48.7388 398.55 48.243 396.592 47.7666L396.119 49.7099ZM407.117 50.2422V49.4766H405.117V50.2422H407.117ZM407.109 49.6006C407.531 46.232 407.781 43.4646 407.855 41.3079L405.856 41.239C405.785 43.3114 405.542 46.0128 405.125 49.3525L407.109 49.6006ZM407.705 41.8017C408.164 41.064 408.44 41.043 408.469 41.043V39.043C407.367 39.043 406.568 39.8422 406.006 40.7451L407.705 41.8017ZM408.469 41.043H408.852V39.043H408.469V41.043ZM408.621 41.016C409.055 41.1191 409.263 41.2535 409.354 41.3448C409.42 41.4105 409.465 41.4883 409.465 41.6562H411.465C411.465 41.0039 411.241 40.4027 410.769 39.9306C410.322 39.4841 409.723 39.2221 409.082 39.07L408.621 41.016ZM409.465 41.6562V43.7617H411.465V41.6562H409.465ZM409.471 43.653C409.217 45.9744 409.082 47.5618 409.082 48.3555H411.082C411.082 47.6908 411.202 46.2157 411.459 43.8704L409.471 43.653ZM409.119 48.0847C409.036 48.3808 408.971 48.624 408.926 48.8095C408.903 48.9017 408.884 48.9883 408.869 49.0646C408.859 49.1184 408.836 49.2399 408.836 49.3672H410.836C410.836 49.3971 410.834 49.4195 410.833 49.431C410.832 49.4435 410.831 49.4517 410.831 49.4546C410.83 49.4597 410.831 49.4561 410.833 49.4408C410.839 49.4099 410.851 49.3587 410.869 49.2823C410.906 49.1306 410.964 48.9135 411.045 48.6262L409.119 48.0847ZM408.836 49.3672V50.8438H410.836V49.3672H408.836ZM409.836 51.8438H409.945V49.8438H409.836V51.8438ZM409.814 51.8351C413.687 52.3466 416.167 52.716 417.293 52.9448L417.691 50.9849C416.484 50.7397 413.933 50.3617 410.076 49.8524L409.814 51.8351ZM417.492 52.9648C417.433 52.9648 417.389 52.9576 417.363 52.9524C417.338 52.947 417.322 52.9417 417.32 52.9408C417.317 52.9397 417.338 52.9474 417.389 52.9757L418.361 51.2274C418.174 51.1238 417.855 50.9648 417.492 50.9648V52.9648ZM418.875 52.1016V49.9961H416.875V52.1016H418.875ZM418.875 49.9961C418.875 44.155 419.168 39.9705 419.727 37.3832L417.773 36.9605C417.165 39.7691 416.875 44.1341 416.875 49.9961H418.875ZM419.746 37.265C419.983 34.7264 420.105 32.8189 420.105 31.5664H418.105C418.105 32.7201 417.991 34.5497 417.754 37.0788L419.746 37.265ZM420.105 31.5664V24.2383H418.105V31.5664H420.105ZM420.105 24.2383C420.105 24.1382 420.133 23.7942 421.181 23.434L420.53 21.5426C419.245 21.9845 418.105 22.8071 418.105 24.2383H420.105ZM420.639 23.4645C421.209 23.5913 421.517 23.7579 421.668 23.8919C421.783 23.9946 421.824 24.0876 421.824 24.2383H423.824C423.824 23.514 423.537 22.8778 422.996 22.3971C422.491 21.9478 421.814 21.6769 421.072 21.5121L420.639 23.4645ZM421.824 24.2383V31.5664H423.824V24.2383H421.824ZM421.824 31.5664C421.824 33.7662 421.461 37.395 420.714 42.4957L422.693 42.7855C423.44 37.6779 423.824 33.9239 423.824 31.5664H421.824ZM420.704 42.6094C420.63 44.9541 420.594 47.4164 420.594 49.9961H422.594C422.594 47.4352 422.63 44.9938 422.703 42.6719L420.704 42.6094ZM420.594 49.9961V54.5898H422.594V49.9961H420.594ZM420.625 54.3434C420.513 54.782 420.374 54.9965 420.278 55.0927C420.208 55.1629 420.132 55.2031 419.98 55.2031V57.2031C420.631 57.2031 421.225 56.9744 421.692 56.5069C422.134 56.0654 422.401 55.4733 422.563 54.8362L420.625 54.3434ZM419.98 55.2031H419.352V57.2031H419.98V55.2031ZM419.62 55.2397C417.45 54.6359 414.953 54.2172 412.136 53.9763L411.966 55.969C414.691 56.2021 417.061 56.6037 419.083 57.1665L419.62 55.2397ZM412.264 53.9957C410.629 53.6385 405.546 52.885 397.091 51.7395L396.823 53.7214C405.321 54.8728 410.301 55.6141 411.837 55.9496L412.264 53.9957ZM397.192 51.7585C396.105 51.4957 395.256 51.2744 394.64 51.094C394.332 51.0037 394.091 50.9264 393.913 50.8619C393.824 50.8298 393.756 50.803 393.707 50.7815C393.655 50.7588 393.638 50.7485 393.643 50.7519L392.614 52.4669C392.926 52.6541 393.466 52.834 394.078 53.0134C394.738 53.2067 395.622 53.4366 396.722 53.7025L397.192 51.7585ZM393.848 50.9144C393.424 50.4761 393.206 50.0571 393.124 49.6577L391.165 50.061C391.338 50.9012 391.776 51.6489 392.41 52.3044L393.848 50.9144ZM393.104 50.1403L400.788 23.8903L398.868 23.3285L391.185 49.5785L393.104 50.1403ZM400.809 23.8026C401.058 22.5386 401.345 20.0335 401.672 16.3422L399.68 16.1656C399.351 19.8754 399.072 22.2739 398.847 23.4161L400.809 23.8026ZM401.533 16.7684C401.965 16.0491 402.24 16.0234 402.289 16.0234V14.0234C401.171 14.0234 400.371 14.8181 399.818 15.7394L401.533 16.7684ZM444.645 21.0391L444.508 22.0298L444.554 22.036L444.599 22.038L444.645 21.0391ZM449.457 21.9414H448.457V22.207L448.589 22.4375L449.457 21.9414ZM449.785 23.1719L450.757 23.4059L450.785 23.2906V23.1719H449.785ZM448.363 24.6484L448.309 25.6469L448.336 25.6484H448.363V24.6484ZM435.129 23.1719L435.279 22.1832L435.204 22.1719H435.129V23.1719ZM431.52 23.1719V22.1719H430.713L430.542 22.9598L431.52 23.1719ZM429.988 33.7266H428.988V34.5455L429.791 34.7069L429.988 33.7266ZM440.27 35.668L440.691 34.761L440.49 34.668H440.27V35.668ZM442.238 37.3633L441.324 37.7694L441.345 37.8156L441.37 37.8594L442.238 37.3633ZM442.348 38.1562L443.32 38.3903L443.348 38.2749V38.1562H442.348ZM440.598 39.6328L440.205 40.5527L440.393 40.6328H440.598V39.6328ZM438.738 38.8398L439.131 37.92L439.036 37.8795L438.934 37.8593L438.738 38.8398ZM429.77 37.1172V36.1172H428.77V37.1172H429.77ZM429.77 45.9766H428.77V46.03L428.775 46.0831L429.77 45.9766ZM430.973 53.7969L430.021 54.1039L430.244 54.7969H430.973V53.7969ZM448.145 55.0547L448.026 56.0476L448.085 56.0547H448.145V55.0547ZM454.598 56.9688L455.57 57.2028L455.598 57.0874V56.9688H454.598ZM448.145 58.4453L448.026 59.4382L448.085 59.4453H448.145V58.4453ZM427.363 52.8945L426.371 53.02L426.376 53.0543L426.382 53.0882L427.363 52.8945ZM426.488 45.9766H425.488V46.0396L425.496 46.102L426.488 45.9766ZM426.488 37.6914L425.49 37.6366L425.488 37.664V37.6914H426.488ZM427.582 26.2344V27.2344H428.406L428.564 26.4259L427.582 26.2344ZM428.785 20.5742L428.041 19.9067L427.885 20.0805L427.822 20.3054L428.785 20.5742ZM430.754 20.7812H434.91V18.7812H430.754V20.7812ZM434.91 20.7812C434.903 20.7812 434.949 20.7827 435.093 20.7964C435.221 20.8086 435.395 20.8274 435.619 20.8533C436.066 20.9049 436.693 20.9828 437.503 21.0875C439.121 21.2966 441.456 21.6106 444.508 22.0298L444.781 20.0484C441.726 19.629 439.385 19.3141 437.759 19.1039C436.946 18.9989 436.309 18.9196 435.849 18.8665C435.423 18.8173 435.078 18.7812 434.91 18.7812V20.7812ZM444.599 22.038C446.192 22.1104 447.339 22.2198 448.07 22.3569C448.444 22.4272 448.646 22.4935 448.73 22.5331C448.772 22.5532 448.728 22.5404 448.661 22.471C448.582 22.3892 448.457 22.2075 448.457 21.9414H450.457C450.457 21.5614 450.281 21.2706 450.103 21.0846C449.936 20.9109 449.741 20.7987 449.583 20.7242C449.266 20.5747 448.865 20.4713 448.438 20.3912C447.565 20.2275 446.305 20.1135 444.69 20.0401L444.599 22.038ZM448.589 22.4375C448.68 22.5966 448.734 22.7146 448.763 22.7958C448.795 22.8828 448.785 22.8915 448.785 22.8438H450.785C450.785 22.3487 450.559 21.8545 450.325 21.4453L448.589 22.4375ZM448.785 22.8438V23.1719H450.785V22.8438H448.785ZM448.813 22.9378C448.717 23.3347 448.6 23.5149 448.532 23.5857C448.502 23.6163 448.482 23.6272 448.468 23.6327C448.454 23.6385 448.424 23.6484 448.363 23.6484V25.6484C448.978 25.6484 449.538 25.4235 449.972 24.9729C450.378 24.5515 450.616 23.9934 450.757 23.4059L448.813 22.9378ZM448.418 23.6499C444.796 23.4517 440.418 22.9641 435.279 22.1832L434.979 24.1605C440.157 24.9474 444.602 25.4441 448.309 25.6469L448.418 23.6499ZM435.129 22.1719H431.52V24.1719H435.129V22.1719ZM430.542 22.9598C429.519 27.6754 428.988 31.2807 428.988 33.7266H430.988C430.988 31.5058 431.479 28.0746 432.497 23.384L430.542 22.9598ZM429.791 34.7069C433.01 35.3543 435.48 35.8406 437.199 36.1653C438.058 36.3275 438.735 36.4502 439.225 36.5328C439.667 36.6071 440.06 36.668 440.27 36.668V34.668C440.296 34.668 440.263 34.6684 440.108 34.647C439.976 34.6287 439.793 34.6002 439.557 34.5605C439.086 34.4812 438.425 34.3613 437.57 34.2C435.863 33.8775 433.402 33.3931 430.185 32.7462L429.791 34.7069ZM439.848 36.575C440.768 37.0021 441.174 37.4299 441.324 37.7694L443.152 36.9571C442.72 35.9842 441.812 35.2818 440.691 34.761L439.848 36.575ZM441.37 37.8594C441.36 37.8419 441.354 37.8247 441.35 37.8109C441.347 37.7976 441.348 37.7931 441.348 37.8008H443.348C443.348 37.4834 443.275 37.1628 443.107 36.8671L441.37 37.8594ZM441.348 37.8008V38.1562H443.348V37.8008H441.348ZM441.375 37.9222C441.28 38.3191 441.162 38.4993 441.094 38.57C441.065 38.6007 441.044 38.6116 441.031 38.617C441.017 38.6228 440.986 38.6328 440.926 38.6328V40.6328C441.541 40.6328 442.101 40.4079 442.535 39.9573C442.941 39.5358 443.178 38.9778 443.32 38.3903L441.375 37.9222ZM440.926 38.6328H440.598V40.6328H440.926V38.6328ZM440.99 38.713L439.131 37.92L438.346 39.7597L440.205 40.5527L440.99 38.713ZM438.934 37.8593C436.063 37.2849 433.877 36.8536 432.378 36.5658C431.629 36.422 431.049 36.3133 430.639 36.2403C430.434 36.2039 430.267 36.1755 430.141 36.1559C430.053 36.1423 429.894 36.1172 429.77 36.1172V38.1172C429.705 38.1172 429.69 38.11 429.834 38.1323C429.939 38.1486 430.089 38.174 430.288 38.2094C430.685 38.28 431.255 38.3866 432.001 38.5299C433.492 38.8163 435.672 39.2463 438.542 39.8204L438.934 37.8593ZM428.77 37.1172V45.9766H430.77V37.1172H428.77ZM428.775 46.0831C429.21 50.1381 429.618 52.8561 430.021 54.1039L431.924 53.4899C431.598 52.4773 431.204 49.9817 430.764 45.87L428.775 46.0831ZM430.973 54.7969H436.441V52.7969H430.973V54.7969ZM436.441 54.7969C436.775 54.7969 437.884 54.8931 439.862 55.1056C441.806 55.3146 444.527 55.6285 448.026 56.0476L448.263 54.0618C444.762 53.6423 442.032 53.3273 440.076 53.1171C438.152 52.9103 436.91 52.7969 436.441 52.7969V54.7969ZM448.145 56.0547H452.191V54.0547H448.145V56.0547ZM452.191 56.0547C452.915 56.0547 453.284 56.1797 453.446 56.2861C453.513 56.3304 453.54 56.3678 453.555 56.3981C453.572 56.4322 453.598 56.5035 453.598 56.6406H455.598C455.598 55.8158 455.26 55.0865 454.546 54.6162C453.906 54.194 453.072 54.0547 452.191 54.0547V56.0547ZM453.598 56.6406V56.9688H455.598V56.6406H453.598ZM453.625 56.7347C453.53 57.1316 453.412 57.3118 453.344 57.3825C453.315 57.4132 453.294 57.4241 453.281 57.4295C453.267 57.4353 453.236 57.4453 453.176 57.4453V59.4453C453.791 59.4453 454.351 59.2204 454.785 58.7698C455.191 58.3483 455.428 57.7903 455.57 57.2028L453.625 56.7347ZM453.176 57.4453H448.145V59.4453H453.176V57.4453ZM448.263 57.4524C444.762 57.033 442.032 56.718 440.076 56.5077C438.152 56.3009 436.91 56.1875 436.441 56.1875V58.1875C436.775 58.1875 437.884 58.2837 439.862 58.4962C441.806 58.7052 444.527 59.0191 448.026 59.4382L448.263 57.4524ZM436.441 56.1875H429.988V58.1875H436.441V56.1875ZM429.988 56.1875C429.878 56.1875 429.635 56.1469 429.297 55.5926C428.95 55.0262 428.618 54.0885 428.344 52.7008L426.382 53.0882C426.673 54.5626 427.062 55.7714 427.59 56.6359C428.126 57.5126 428.913 58.1875 429.988 58.1875V56.1875ZM428.355 52.769L427.48 45.8511L425.496 46.102L426.371 53.02L428.355 52.769ZM427.488 45.9766V37.6914H425.488V45.9766H427.488ZM427.487 37.7462C427.696 33.9302 427.891 31.0824 428.072 29.1937C428.162 28.2451 428.247 27.5612 428.324 27.1244C428.364 26.8989 428.395 26.7801 428.41 26.7344C428.42 26.7047 428.408 26.7552 428.357 26.832C428.343 26.8529 428.101 27.2344 427.582 27.2344V25.2344C427.024 25.2344 426.743 25.6457 426.69 25.7263C426.599 25.8628 426.547 26.0028 426.516 26.0924C426.451 26.2854 426.399 26.5246 426.355 26.7765C426.263 27.2944 426.172 28.0427 426.081 29.0036C425.896 30.9339 425.7 33.8146 425.49 37.6366L427.487 37.7462ZM428.564 26.4259C429.149 23.4235 429.543 21.5804 429.748 20.843L427.822 20.3054C427.59 21.1358 427.181 23.0661 426.601 26.0429L428.564 26.4259ZM429.53 21.2418C429.779 20.9633 430.143 20.7812 430.754 20.7812V18.7812C429.688 18.7812 428.739 19.1279 428.041 19.9067L429.53 21.2418ZM488.668 16.7188V15.7188H488.55L488.435 15.7464L488.668 16.7188ZM488.887 16.7188L489.156 15.7558L489.024 15.7188H488.887V16.7188ZM486.781 20.6562V21.6562H486.828L486.875 21.6518L486.781 20.6562ZM486.562 21.2305L485.564 21.1829L485.562 21.2067V21.2305H486.562ZM486.562 37.0352H485.562V37.0912L485.569 37.1469L486.562 37.0352ZM488.559 49.8594L489.529 49.6168L489.527 49.609L489.525 49.6013L488.559 49.8594ZM488.777 51.7188L489.751 51.9488L489.777 51.8353V51.7188H488.777ZM485.387 50.3242L486.384 50.249L486.379 50.1801L486.364 50.1126L485.387 50.3242ZM483.391 37.0352H482.391V37.0942L482.398 37.1529L483.391 37.0352ZM483.391 20.9844H484.391V19.9844H483.391V20.9844ZM482.652 20.9844V19.9844H482.601L482.549 19.9897L482.652 20.9844ZM470.922 21.3398L470.888 20.3404L469.922 20.3732V21.3398H470.922ZM468.816 46.7422L467.823 46.628L467.817 46.6761L467.817 46.7246L468.816 46.7422ZM468.707 56.6953L469.631 57.0771L469.707 56.8937V56.6953H468.707ZM465.535 55.7656H464.535V55.8093L464.539 55.8528L465.535 55.7656ZM466.383 39.8242L467.366 40.0067L467.372 39.9725L467.376 39.9379L466.383 39.8242ZM467.75 21.6953H468.75V20.6953H467.75V21.6953ZM466.383 20.1914H465.383V20.3167L465.414 20.4381L466.383 20.1914ZM470.184 17.8672L470.158 16.8675L470.142 16.8679L470.126 16.8688L470.184 17.8672ZM481.914 17.5391V16.5391H481.844L481.775 16.5488L481.914 17.5391ZM488.668 17.7188H488.887V15.7188H488.668V17.7188ZM488.617 17.6817C488.961 17.7779 489.111 17.892 489.172 17.9588C489.215 18.0058 489.254 18.07 489.254 18.2227H491.254C491.254 17.628 491.065 17.0677 490.652 16.6135C490.257 16.179 489.724 15.9148 489.156 15.7558L488.617 17.6817ZM489.254 18.2227V18.5781H491.254V18.2227H489.254ZM489.254 18.5781C489.254 18.7491 489.205 18.9153 488.872 19.1146C488.482 19.3479 487.789 19.5566 486.687 19.6607L486.875 21.6518C488.089 21.5372 489.132 21.2901 489.899 20.8307C490.724 20.3373 491.254 19.5738 491.254 18.5781H489.254ZM486.781 19.6562C486.076 19.6562 485.779 20.2272 485.696 20.4438C485.603 20.69 485.574 20.961 485.564 21.1829L487.561 21.278C487.569 21.1171 487.586 21.101 487.565 21.1558C487.554 21.186 487.508 21.2995 487.386 21.4155C487.243 21.5524 487.03 21.6562 486.781 21.6562V19.6562ZM485.562 21.2305V37.0352H487.562V21.2305H485.562ZM485.569 37.1469C486.261 43.3059 486.933 47.6489 487.592 50.1175L489.525 49.6013C488.908 47.2938 488.249 43.0873 487.556 36.9234L485.569 37.1469ZM487.588 50.1019C487.719 50.6227 487.777 51.0779 487.777 51.4727H489.777C489.777 50.883 489.69 50.2627 489.529 49.6168L487.588 50.1019ZM487.777 51.4727V51.7188H489.777V51.4727H487.777ZM487.804 51.4887C487.706 51.9039 487.587 52.0975 487.518 52.174C487.488 52.2064 487.472 52.2135 487.47 52.2145C487.467 52.2156 487.452 52.2227 487.41 52.2227V54.2227C488.031 54.2227 488.581 53.9774 488.998 53.5194C489.384 53.0946 489.612 52.5362 489.751 51.9488L487.804 51.4887ZM487.41 52.2227H486.973V54.2227H487.41V52.2227ZM486.973 52.2227C486.965 52.2227 486.902 52.26 486.77 52.018C486.607 51.721 486.453 51.165 486.384 50.249L484.39 50.3995C484.466 51.4157 484.649 52.3089 485.015 52.9781C485.412 53.7023 486.069 54.2227 486.973 54.2227V52.2227ZM486.364 50.1126C485.755 47.2995 485.094 42.909 484.384 36.9174L482.398 37.1529C483.109 43.1561 483.779 47.625 484.409 50.5359L486.364 50.1126ZM484.391 37.0352V20.9844H482.391V37.0352H484.391ZM483.391 19.9844H482.652V21.9844H483.391V19.9844ZM482.549 19.9897C481.757 20.0716 481.151 20.1329 480.731 20.1736C480.27 20.2182 480.101 20.2305 480.109 20.2305V22.2305C480.227 22.2305 480.536 22.2018 480.923 22.1643C481.351 22.123 481.962 22.0612 482.755 21.9791L482.549 19.9897ZM480.109 20.2305H475.68V22.2305H480.109V20.2305ZM475.68 20.2305C474.641 20.2305 473.041 20.2674 470.888 20.3404L470.956 22.3393C473.105 22.2664 474.677 22.2305 475.68 22.2305V20.2305ZM469.922 21.3398V21.4492H471.922V21.3398H469.922ZM469.922 21.4492C469.922 26.0328 469.227 34.4104 467.823 46.628L469.81 46.8564C471.213 34.6469 471.922 26.1625 471.922 21.4492H469.922ZM467.817 46.7246C467.744 50.8652 467.707 54.1895 467.707 56.6953H469.707C469.707 54.2063 469.743 50.8952 469.816 46.7598L467.817 46.7246ZM467.783 56.3136C467.641 56.6558 467.511 56.8267 467.428 56.9027C467.366 56.9602 467.347 56.9531 467.34 56.9531V58.9531C468.528 58.9531 469.235 58.0358 469.631 57.0771L467.783 56.3136ZM467.34 56.9531H467.012V58.9531H467.34V56.9531ZM467.012 56.9531C466.944 56.9531 466.919 56.94 466.913 56.9367C466.906 56.9329 466.875 56.9152 466.829 56.8468C466.721 56.6872 466.589 56.3379 466.531 55.6785L464.539 55.8528C464.609 56.6517 464.787 57.3961 465.171 57.9657C465.597 58.5969 466.24 58.9531 467.012 58.9531V56.9531ZM466.535 55.7656C466.535 48.1809 466.82 42.9506 467.366 40.0067L465.4 39.6417C464.816 42.7864 464.535 48.1837 464.535 55.7656H466.535ZM467.376 39.9379C468.289 31.9622 468.75 25.8736 468.75 21.6953H466.75C466.75 25.7566 466.3 31.7539 465.389 39.7105L467.376 39.9379ZM467.75 20.6953H467.641V22.6953H467.75V20.6953ZM467.641 20.6953C467.64 20.6953 467.645 20.6953 467.655 20.6975C467.664 20.6997 467.674 20.7032 467.681 20.7069C467.697 20.715 467.687 20.7151 467.656 20.6778C467.582 20.5897 467.462 20.3765 467.352 19.9447L465.414 20.4381C465.559 21.0089 465.776 21.5477 466.122 21.9609C466.495 22.4079 467.015 22.6953 467.641 22.6953V20.6953ZM467.383 20.1914V19.8359H465.383V20.1914H467.383ZM467.383 19.8359C467.383 19.7165 467.403 19.5589 467.793 19.3567C468.239 19.1255 469.022 18.9357 470.241 18.8655L470.126 16.8688C468.811 16.9445 467.694 17.1558 466.873 17.5808C465.996 18.0349 465.383 18.7887 465.383 19.8359H467.383ZM470.21 18.8669C473.011 18.7941 475.463 18.7578 477.566 18.7578V16.7578C475.441 16.7578 472.971 16.7945 470.158 16.8675L470.21 18.8669ZM477.566 18.7578H480.219V16.7578H477.566V18.7578ZM480.219 18.7578C480.347 18.7578 480.598 18.726 480.839 18.6949C481.127 18.6577 481.532 18.6024 482.053 18.5294L481.775 16.5488C481.257 16.6215 480.86 16.6756 480.583 16.7113C480.444 16.7293 480.339 16.7421 480.266 16.7503C480.167 16.7612 480.175 16.7578 480.219 16.7578V18.7578ZM481.914 18.5391H483.801V16.5391H481.914V18.5391ZM483.801 18.5391C484.898 18.5391 486.624 18.2377 488.901 17.6911L488.435 15.7464C486.155 16.2935 484.636 16.5391 483.801 16.5391V18.5391ZM512.977 17.7578L512.323 18.5146L512.369 18.5541L512.419 18.5878L512.977 17.7578ZM517.215 23.5L516.247 23.7496L516.254 23.778L516.263 23.8058L517.215 23.5ZM518.91 29.8711H517.91V29.9655L517.928 30.0582L518.91 29.8711ZM519.02 36.707L520.018 36.7578L520.02 36.7324V36.707H519.02ZM517.898 46.4414L518.854 46.735L518.863 46.7059L518.87 46.6763L517.898 46.4414ZM513.414 54.5625L514.151 55.2386L514.188 55.1986L514.22 55.1549L513.414 54.5625ZM510.188 57.1055V58.1055H510.287L510.384 58.086L510.188 57.1055ZM501.137 55.0273L502.017 54.5526L501.899 54.3346L501.694 54.1967L501.137 55.0273ZM497.555 50.4062L498.492 50.0589L498.464 49.9833L498.425 49.9131L497.555 50.4062ZM496.98 23.1719L496.121 22.6613L496.055 22.7717L496.02 22.895L496.98 23.1719ZM499.223 21.4219V22.4219H500.223V21.4219H499.223ZM500.781 19.6719L501.482 20.3852L501.781 20.0913V19.6719H500.781ZM503.816 16.3086L503.336 15.4315L503.254 15.4762L503.182 15.5353L503.816 16.3086ZM497.773 38.5391H496.773V38.5619L496.774 38.5848L497.773 38.5391ZM501.492 48.7383L500.63 49.2441L500.774 49.4897L501.025 49.6227L501.492 48.7383ZM503.762 50.7617L503.001 51.4114L503.064 51.485L503.14 51.5452L503.762 50.7617ZM513.141 47.7812L512.727 46.8709L512.423 47.0091L512.263 47.3024L513.141 47.7812ZM514.863 44.3359L513.936 43.9628L513.928 43.9826L513.92 44.0027L514.863 44.3359ZM515.875 38.7031V37.7031H514.875V38.7031H515.875ZM513.934 23.3359L514.88 23.0123L514.801 22.7808L514.623 22.6119L513.934 23.3359ZM505.922 20.0273V19.0273H505.691L505.484 19.1284L505.922 20.0273ZM502.285 23.8008L502.992 24.5079L503.034 24.4665L503.07 24.4206L502.285 23.8008ZM499.934 26.1523L499.226 25.4452L499.046 25.6261L498.974 25.8715L499.934 26.1523ZM506.496 16.6797H507.836V14.6797H506.496V16.6797ZM507.836 16.6797C509.381 16.6797 510.869 17.2591 512.323 18.5146L513.63 17.001C511.876 15.4857 509.937 14.6797 507.836 14.6797V16.6797ZM512.419 18.5878C514.464 19.9624 515.713 21.6806 516.247 23.7496L518.183 23.2504C517.513 20.6527 515.937 18.5428 513.534 16.9279L512.419 18.5878ZM516.263 23.8058C516.826 25.5581 517.244 26.9504 517.52 27.9886C517.808 29.0729 517.91 29.6593 517.91 29.8711H519.91C519.91 29.3537 519.729 28.5136 519.453 27.4743C519.164 26.3888 518.734 24.9601 518.167 23.1942L516.263 23.8058ZM517.928 30.0582C517.985 30.3586 518.02 30.7653 518.02 31.293H520.02C520.02 30.6904 519.981 30.1492 519.892 29.684L517.928 30.0582ZM518.02 31.293V36.707H520.02V31.293H518.02ZM518.021 36.6562C517.803 40.9416 517.433 44.1116 516.926 46.2065L518.87 46.6763C519.421 44.3962 519.799 41.0766 520.018 36.7578L518.021 36.6562ZM516.942 46.1478C516.278 48.3115 514.855 50.9149 512.608 53.9701L514.22 55.1549C516.531 52.0122 518.097 49.2016 518.854 46.735L516.942 46.1478ZM512.677 53.8864C511.986 54.6401 511.402 55.1969 510.922 55.575C510.42 55.9703 510.121 56.0991 509.991 56.1249L510.384 58.086C510.984 57.9661 511.586 57.5981 512.16 57.1457C512.756 56.6761 513.421 56.0343 514.151 55.2386L512.677 53.8864ZM510.188 56.1055H505.703V58.1055H510.188V56.1055ZM505.703 56.1055C503.586 56.1055 502.516 55.4772 502.017 54.5526L500.257 55.5021C501.253 57.3483 503.227 58.1055 505.703 58.1055V56.1055ZM501.694 54.1967C500.219 53.208 499.153 51.8413 498.492 50.0589L496.617 50.7536C497.415 52.9087 498.737 54.6227 500.58 55.858L501.694 54.1967ZM498.425 49.9131C496.251 46.0778 495.191 42.3725 495.191 38.7852H493.191C493.191 42.7811 494.374 46.8232 496.685 50.8994L498.425 49.9131ZM495.191 38.7852V37.6641H493.191V38.7852H495.191ZM495.191 37.6641C495.191 34.6047 496.086 29.8877 497.941 23.4487L496.02 22.895C494.156 29.3623 493.191 34.3068 493.191 37.6641H495.191ZM497.84 23.6824C498.481 22.6039 498.967 22.4219 499.223 22.4219V20.4219C497.874 20.4219 496.866 21.4065 496.121 22.6613L497.84 23.6824ZM500.223 21.4219C500.223 21.5526 500.195 21.6508 500.18 21.6975C500.163 21.7491 500.146 21.7848 500.138 21.8002C500.123 21.8297 500.117 21.8358 500.134 21.8107C500.169 21.7629 500.238 21.6756 500.359 21.5401C500.596 21.2735 500.967 20.8909 501.482 20.3852L500.08 18.9585C499.556 19.4737 499.148 19.8931 498.866 20.2099C498.726 20.3661 498.601 20.5157 498.506 20.6502C498.459 20.7163 498.403 20.7998 498.356 20.8931C498.324 20.9551 498.223 21.1567 498.223 21.4219H500.223ZM501.781 19.6719C501.781 19.791 501.74 19.7977 501.831 19.644C501.911 19.5092 502.053 19.3173 502.282 19.0635C502.739 18.5574 503.454 17.899 504.45 17.0819L503.182 15.5353C502.156 16.377 501.353 17.1086 500.798 17.7236C500.521 18.0303 500.284 18.3318 500.111 18.6231C499.949 18.8955 499.781 19.2611 499.781 19.6719H501.781ZM504.297 17.1857C504.892 16.8598 505.615 16.6797 506.496 16.6797V14.6797C505.336 14.6797 504.272 14.9189 503.336 15.4315L504.297 17.1857ZM496.773 36.9805V38.5391H498.773V36.9805H496.773ZM496.774 38.5848C496.913 41.6099 498.244 45.1757 500.63 49.2441L502.355 48.2325C500.037 44.28 498.889 41.0463 498.772 38.4934L496.774 38.5848ZM501.025 49.6227C501.515 49.8809 502.173 50.442 503.001 51.4114L504.522 50.1121C503.637 49.0763 502.782 48.2884 501.959 47.8539L501.025 49.6227ZM503.14 51.5452C503.885 52.136 504.804 52.3906 505.812 52.3906V50.3906C505.143 50.3906 504.696 50.226 504.383 49.9782L503.14 51.5452ZM505.812 52.3906H509.203V50.3906H505.812V52.3906ZM509.203 52.3906C510.187 52.3906 511.074 51.935 511.848 51.2254C512.616 50.5207 513.335 49.5135 514.019 48.2601L512.263 47.3024C511.634 48.4552 511.04 49.2528 510.496 49.7511C509.958 50.2447 509.531 50.3906 509.203 50.3906V52.3906ZM513.554 48.6916C513.895 48.5367 514.131 48.2578 514.28 48.0545C514.449 47.825 514.61 47.5434 514.766 47.2304C515.081 46.6018 515.427 45.7413 515.806 44.6692L513.92 44.0027C513.552 45.0452 513.238 45.8161 512.978 46.336C512.847 46.5972 512.743 46.769 512.667 46.8723C512.572 47.0017 512.587 46.9346 512.727 46.8709L513.554 48.6916ZM515.791 44.7091C516.52 42.897 516.875 40.8902 516.875 38.7031H514.875C514.875 40.6723 514.556 42.4207 513.936 43.9628L515.791 44.7091ZM515.875 39.7031C516.463 39.7031 516.738 39.2559 516.795 39.1574C516.879 39.0088 516.921 38.8606 516.942 38.7735C516.989 38.5826 517.016 38.351 517.036 38.1146C517.076 37.6259 517.094 36.9228 517.094 36.0234H515.094C515.094 36.9105 515.075 37.5473 515.042 37.9518C515.025 38.162 515.007 38.2654 514.999 38.2978C514.993 38.3223 515.005 38.2579 515.058 38.1651C515.082 38.1225 515.324 37.7031 515.875 37.7031V39.7031ZM517.094 36.0234V30.3906H515.094V36.0234H517.094ZM517.094 30.3906C517.094 30.1223 517.013 29.7625 516.928 29.4274C516.832 29.049 516.692 28.5597 516.51 27.965C516.145 26.7738 515.601 25.1213 514.88 23.0123L512.987 23.6595C513.706 25.7615 514.242 27.3902 514.598 28.5506C514.775 29.1317 514.905 29.5857 514.989 29.9183C515.085 30.2942 515.094 30.4128 515.094 30.3906H517.094ZM514.623 22.6119C512.282 20.381 510.073 19.0273 508.055 19.0273V21.0273C509.244 21.0273 510.955 21.8795 513.244 24.0599L514.623 22.6119ZM508.055 19.0273H505.922V21.0273H508.055V19.0273ZM505.484 19.1284C504.957 19.3849 504.373 19.9004 503.759 20.5365C503.121 21.1985 502.367 22.0835 501.5 23.1809L503.07 24.4206C503.917 23.3488 504.625 22.5202 505.2 21.9244C505.799 21.3027 506.175 21.0162 506.36 20.9263L505.484 19.1284ZM501.578 23.0937L499.226 25.4452L500.641 26.8595L502.992 24.5079L501.578 23.0937ZM498.974 25.8715C497.532 30.8006 496.773 34.5291 496.773 36.9805H498.773C498.773 34.8381 499.455 31.3478 500.893 26.4332L498.974 25.8715ZM539.828 19.2617H538.828V19.2856L538.829 19.3095L539.828 19.2617ZM541.469 37.8008L540.48 37.9528L540.496 38.0561L540.533 38.1538L541.469 37.8008ZM543.766 47.4258L542.781 47.6018L542.798 47.6957L542.832 47.7848L543.766 47.4258ZM545.078 51.582H546.078V51.4447L546.041 51.3124L545.078 51.582ZM545.078 52.0195L546.06 52.2073L546.078 52.1143V52.0195H545.078ZM541.141 50.1602L542.125 49.9864L542.107 49.8801L542.066 49.7802L541.141 50.1602ZM539.391 42.5312L540.374 42.3504L540.353 42.2346L540.305 42.1269L539.391 42.5312ZM537.75 34.1914L538.746 34.106L538.744 34.0787L538.74 34.0516L537.75 34.1914ZM536.984 26.5898L537.984 26.5528L536.088 26.1472L536.984 26.5898ZM531.078 40.2344L531.99 40.6449L532.003 40.6167L532.014 40.5878L531.078 40.2344ZM525.391 52.8672L526.235 53.4033L526.273 53.3429L526.302 53.2777L525.391 52.8672ZM522.875 54.8906L522.564 55.8411L522.716 55.8906H522.875V54.8906ZM522.875 50.1602L523.625 50.8214L523.736 50.6959L523.8 50.5412L522.875 50.1602ZM527.25 40.2344L528.158 40.6526L528.169 40.629L528.179 40.6048L527.25 40.2344ZM533.375 26.0156L534.273 26.455L534.282 26.438L534.289 26.4207L533.375 26.0156ZM536 17.9766L535.048 17.6718L535.043 17.6876L535.038 17.7036L536 17.9766ZM537.969 16.2422H538.297V14.2422H537.969V16.2422ZM538.297 16.2422C538.311 16.2422 538.3 16.2386 538.308 16.246C538.337 16.2708 538.419 16.362 538.511 16.6031C538.7 17.0995 538.828 17.9567 538.828 19.2617H540.828C540.828 17.8871 540.701 16.7345 540.38 15.8911C540.216 15.4622 539.98 15.0509 539.625 14.7408C539.251 14.4132 538.793 14.2422 538.297 14.2422V16.2422ZM538.829 19.3095C539.195 26.9464 539.744 33.1647 540.48 37.9528L542.457 37.6487C541.735 32.9577 541.191 26.8166 540.827 19.2139L538.829 19.3095ZM540.533 38.1538C541.227 39.9935 541.98 43.1236 542.781 47.6018L544.75 47.2497C543.947 42.7592 543.168 39.4726 542.404 37.4477L540.533 38.1538ZM542.832 47.7848C543.18 48.6883 543.607 50.038 544.115 51.8517L546.041 51.3124C545.528 49.4803 545.081 48.0591 544.699 47.0668L542.832 47.7848ZM544.078 51.582V52.0195H546.078V51.582H544.078ZM544.096 51.8318C543.991 52.3827 543.852 52.6735 543.751 52.8066C543.728 52.8362 543.71 52.8538 543.699 52.8637C543.688 52.8732 543.682 52.8763 543.682 52.8766C543.681 52.8768 543.681 52.8768 543.68 52.877C543.679 52.8773 543.672 52.8789 543.656 52.8789V54.8789C544.357 54.8789 544.934 54.5511 545.339 54.0215C545.711 53.5348 545.929 52.896 546.06 52.2073L544.096 51.8318ZM543.656 52.8789H543.219V54.8789H543.656V52.8789ZM543.219 52.8789C543.218 52.8789 543.206 52.8842 543.158 52.8486C543.098 52.8026 542.991 52.6935 542.861 52.4614C542.596 51.9871 542.337 51.1872 542.125 49.9864L540.156 50.3339C540.381 51.6123 540.688 52.6717 541.115 53.437C541.542 54.2007 542.221 54.8789 543.219 54.8789V52.8789ZM542.066 49.7802C541.695 48.8767 541.128 46.4497 540.374 42.3504L538.407 42.7121C539.148 46.743 539.748 49.402 540.216 50.5401L542.066 49.7802ZM540.305 42.1269C539.61 40.5543 539.073 37.9132 538.746 34.106L536.754 34.2768C537.084 38.1258 537.64 41.0446 538.476 42.9356L540.305 42.1269ZM538.74 34.0516C538.305 30.9694 538.055 28.4733 537.984 26.5528L535.985 26.6269C536.06 28.6439 536.32 31.2155 536.76 34.3312L538.74 34.0516ZM536.088 26.1472C533.94 30.4982 531.958 35.0763 530.143 39.8809L532.014 40.5878C533.807 35.8404 535.763 31.3221 537.881 27.0325L536.088 26.1472ZM530.166 39.8238L524.479 52.4567L526.302 53.2777L531.99 40.6449L530.166 39.8238ZM524.546 52.3311C524.137 52.9765 523.797 53.4089 523.531 53.6683C523.232 53.9598 523.171 53.8906 523.312 53.8906V55.8906C523.983 55.8906 524.533 55.4842 524.926 55.1012C525.352 54.6862 525.788 54.1068 526.235 53.4033L524.546 52.3311ZM523.312 53.8906H522.875V55.8906H523.312V53.8906ZM523.186 53.9401C522.851 53.8306 522.687 53.6958 522.603 53.5859C522.524 53.4821 522.453 53.32 522.453 53.0312H520.453C520.453 53.6722 520.62 54.2849 521.014 54.8008C521.404 55.3108 521.951 55.6408 522.564 55.8411L523.186 53.9401ZM522.453 53.0312V52.5938H520.453V53.0312H522.453ZM522.453 52.5938C522.453 52.5983 522.453 52.5588 522.486 52.4635C522.519 52.3697 522.577 52.2427 522.672 52.0797C522.864 51.7508 523.174 51.3331 523.625 50.8214L522.125 49.499C521.628 50.0627 521.227 50.5884 520.945 51.0707C520.675 51.5331 520.453 52.0575 520.453 52.5938H522.453ZM523.8 50.5412C524.905 47.8602 526.357 44.5648 528.158 40.6526L526.342 39.8161C524.534 43.7425 523.069 47.0643 521.95 49.7791L523.8 50.5412ZM528.179 40.6048C530.618 34.4884 532.649 29.7758 534.273 26.455L532.477 25.5762C530.82 28.9638 528.767 33.7303 526.321 39.8639L528.179 40.6048ZM534.289 26.4207C534.959 24.9081 535.851 22.165 536.962 18.2495L535.038 17.7036C533.925 21.6267 533.067 24.243 532.461 25.6106L534.289 26.4207ZM536.952 18.2813C537.231 17.41 537.503 16.8413 537.741 16.5101C537.986 16.1697 538.071 16.2422 537.969 16.2422V14.2422C537.138 14.2422 536.529 14.7704 536.118 15.3415C535.7 15.9217 535.352 16.7202 535.048 17.6718L536.952 18.2813ZM566.816 21.0391L566.68 22.0298L566.725 22.036L566.771 22.038L566.816 21.0391ZM571.629 21.9414H570.629V22.207L570.761 22.4375L571.629 21.9414ZM571.957 23.1719L572.929 23.4059L572.957 23.2906V23.1719H571.957ZM570.535 24.6484L570.481 25.6469L570.508 25.6484H570.535V24.6484ZM557.301 23.1719L557.451 22.1832L557.376 22.1719H557.301V23.1719ZM553.691 23.1719V22.1719H552.885L552.714 22.9598L553.691 23.1719ZM552.16 33.7266H551.16V34.5455L551.963 34.7069L552.16 33.7266ZM562.441 35.668L562.863 34.761L562.662 34.668H562.441V35.668ZM564.41 37.3633L563.496 37.7694L563.517 37.8156L563.542 37.8594L564.41 37.3633ZM564.52 38.1562L565.492 38.3903L565.52 38.2749V38.1562H564.52ZM562.77 39.6328L562.377 40.5527L562.565 40.6328H562.77V39.6328ZM560.91 38.8398L561.302 37.92L561.207 37.8795L561.106 37.8593L560.91 38.8398ZM551.941 37.1172V36.1172H550.941V37.1172H551.941ZM551.941 45.9766H550.941V46.03L550.947 46.0831L551.941 45.9766ZM553.145 53.7969L552.193 54.1039L552.416 54.7969H553.145V53.7969ZM570.316 55.0547L570.197 56.0476L570.257 56.0547H570.316V55.0547ZM576.77 56.9688L577.742 57.2028L577.77 57.0874V56.9688H576.77ZM570.316 58.4453L570.197 59.4382L570.257 59.4453H570.316V58.4453ZM549.535 52.8945L548.543 53.02L548.547 53.0543L548.554 53.0882L549.535 52.8945ZM548.66 45.9766H547.66V46.0396L547.668 46.102L548.66 45.9766ZM548.66 37.6914L547.662 37.6366L547.66 37.664V37.6914H548.66ZM549.754 26.2344V27.2344H550.578L550.735 26.4259L549.754 26.2344ZM550.957 20.5742L550.212 19.9067L550.057 20.0805L549.994 20.3054L550.957 20.5742ZM552.926 20.7812H557.082V18.7812H552.926V20.7812ZM557.082 20.7812C557.075 20.7812 557.121 20.7827 557.265 20.7964C557.393 20.8086 557.567 20.8274 557.791 20.8533C558.238 20.9049 558.865 20.9828 559.675 21.0875C561.293 21.2966 563.628 21.6106 566.68 22.0298L566.952 20.0484C563.898 19.629 561.557 19.3141 559.931 19.1039C559.118 18.9989 558.481 18.9196 558.021 18.8665C557.595 18.8173 557.25 18.7812 557.082 18.7812V20.7812ZM566.771 22.038C568.364 22.1104 569.51 22.2198 570.241 22.3569C570.616 22.4272 570.817 22.4935 570.902 22.5331C570.944 22.5532 570.9 22.5404 570.833 22.471C570.754 22.3892 570.629 22.2075 570.629 21.9414H572.629C572.629 21.5614 572.453 21.2706 572.274 21.0846C572.107 20.9109 571.913 20.7987 571.755 20.7242C571.438 20.5747 571.037 20.4713 570.61 20.3912C569.737 20.2275 568.477 20.1135 566.862 20.0401L566.771 22.038ZM570.761 22.4375C570.852 22.5966 570.906 22.7146 570.935 22.7958C570.967 22.8828 570.957 22.8915 570.957 22.8438H572.957C572.957 22.3487 572.731 21.8545 572.497 21.4453L570.761 22.4375ZM570.957 22.8438V23.1719H572.957V22.8438H570.957ZM570.985 22.9378C570.889 23.3347 570.772 23.5149 570.704 23.5857C570.674 23.6163 570.653 23.6272 570.64 23.6327C570.626 23.6385 570.596 23.6484 570.535 23.6484V25.6484C571.15 25.6484 571.71 25.4235 572.144 24.9729C572.55 24.5515 572.788 23.9934 572.929 23.4059L570.985 22.9378ZM570.59 23.6499C566.968 23.4517 562.59 22.9641 557.451 22.1832L557.151 24.1605C562.329 24.9474 566.774 25.4441 570.481 25.6469L570.59 23.6499ZM557.301 22.1719H553.691V24.1719H557.301V22.1719ZM552.714 22.9598C551.691 27.6754 551.16 31.2807 551.16 33.7266H553.16C553.16 31.5058 553.651 28.0746 554.669 23.384L552.714 22.9598ZM551.963 34.7069C555.182 35.3543 557.652 35.8406 559.371 36.1653C560.23 36.3275 560.907 36.4502 561.397 36.5328C561.839 36.6071 562.232 36.668 562.441 36.668V34.668C562.468 34.668 562.435 34.6684 562.28 34.647C562.148 34.6287 561.965 34.6002 561.729 34.5605C561.258 34.4812 560.597 34.3613 559.742 34.2C558.035 33.8775 555.574 33.3931 552.357 32.7462L551.963 34.7069ZM562.02 36.575C562.94 37.0021 563.345 37.4299 563.496 37.7694L565.324 36.9571C564.892 35.9842 563.984 35.2818 562.863 34.761L562.02 36.575ZM563.542 37.8594C563.532 37.8419 563.526 37.8247 563.522 37.8109C563.519 37.7976 563.52 37.7931 563.52 37.8008H565.52C565.52 37.4834 565.447 37.1628 565.278 36.8671L563.542 37.8594ZM563.52 37.8008V38.1562H565.52V37.8008H563.52ZM563.547 37.9222C563.452 38.3191 563.334 38.4993 563.266 38.57C563.236 38.6007 563.216 38.6116 563.203 38.617C563.189 38.6228 563.158 38.6328 563.098 38.6328V40.6328C563.713 40.6328 564.273 40.4079 564.707 39.9573C565.113 39.5358 565.35 38.9778 565.492 38.3903L563.547 37.9222ZM563.098 38.6328H562.77V40.6328H563.098V38.6328ZM563.162 38.713L561.302 37.92L560.518 39.7597L562.377 40.5527L563.162 38.713ZM561.106 37.8593C558.235 37.2849 556.049 36.8536 554.55 36.5658C553.801 36.422 553.221 36.3133 552.81 36.2403C552.606 36.2039 552.439 36.1755 552.313 36.1559C552.225 36.1423 552.065 36.1172 551.941 36.1172V38.1172C551.877 38.1172 551.862 38.11 552.006 38.1323C552.111 38.1486 552.261 38.174 552.46 38.2094C552.857 38.28 553.427 38.3866 554.173 38.5299C555.664 38.8163 557.844 39.2463 560.714 39.8204L561.106 37.8593ZM550.941 37.1172V45.9766H552.941V37.1172H550.941ZM550.947 46.0831C551.382 50.1381 551.79 52.8561 552.193 54.1039L554.096 53.4899C553.77 52.4773 553.376 49.9817 552.936 45.87L550.947 46.0831ZM553.145 54.7969H558.613V52.7969H553.145V54.7969ZM558.613 54.7969C558.947 54.7969 560.056 54.8931 562.034 55.1056C563.978 55.3146 566.699 55.6285 570.197 56.0476L570.435 54.0618C566.934 53.6423 564.204 53.3273 562.247 53.1171C560.324 52.9103 559.082 52.7969 558.613 52.7969V54.7969ZM570.316 56.0547H574.363V54.0547H570.316V56.0547ZM574.363 56.0547C575.087 56.0547 575.456 56.1797 575.618 56.2861C575.685 56.3304 575.711 56.3678 575.727 56.3981C575.744 56.4322 575.77 56.5035 575.77 56.6406H577.77C577.77 55.8158 577.432 55.0865 576.718 54.6162C576.078 54.194 575.243 54.0547 574.363 54.0547V56.0547ZM575.77 56.6406V56.9688H577.77V56.6406H575.77ZM575.797 56.7347C575.702 57.1316 575.584 57.3118 575.516 57.3825C575.486 57.4132 575.466 57.4241 575.453 57.4295C575.439 57.4353 575.408 57.4453 575.348 57.4453V59.4453C575.963 59.4453 576.523 59.2204 576.957 58.7698C577.363 58.3483 577.6 57.7903 577.742 57.2028L575.797 56.7347ZM575.348 57.4453H570.316V59.4453H575.348V57.4453ZM570.435 57.4524C566.934 57.033 564.204 56.718 562.247 56.5077C560.324 56.3009 559.082 56.1875 558.613 56.1875V58.1875C558.947 58.1875 560.056 58.2837 562.034 58.4962C563.978 58.7052 566.699 59.0191 570.197 59.4382L570.435 57.4524ZM558.613 56.1875H552.16V58.1875H558.613V56.1875ZM552.16 56.1875C552.05 56.1875 551.807 56.1469 551.468 55.5926C551.122 55.0262 550.79 54.0885 550.516 52.7008L548.554 53.0882C548.845 54.5626 549.233 55.7714 549.762 56.6359C550.298 57.5126 551.085 58.1875 552.16 58.1875V56.1875ZM550.527 52.769L549.652 45.8511L547.668 46.102L548.543 53.02L550.527 52.769ZM549.66 45.9766V37.6914H547.66V45.9766H549.66ZM549.659 37.7462C549.868 33.9302 550.063 31.0824 550.244 29.1937C550.334 28.2451 550.419 27.5612 550.496 27.1244C550.536 26.8989 550.567 26.7801 550.582 26.7344C550.592 26.7047 550.579 26.7552 550.528 26.832C550.515 26.8529 550.273 27.2344 549.754 27.2344V25.2344C549.196 25.2344 548.915 25.6457 548.862 25.7263C548.771 25.8628 548.718 26.0028 548.688 26.0924C548.623 26.2854 548.571 26.5246 548.526 26.7765C548.435 27.2944 548.344 28.0427 548.253 29.0036C548.068 30.9339 547.871 33.8146 547.662 37.6366L549.659 37.7462ZM550.735 26.4259C551.321 23.4235 551.714 21.5804 551.92 20.843L549.994 20.3054C549.762 21.1358 549.353 23.0661 548.772 26.0429L550.735 26.4259ZM551.702 21.2418C551.951 20.9633 552.315 20.7812 552.926 20.7812V18.7812C551.859 18.7812 550.911 19.1279 550.212 19.9067L551.702 21.2418Z" fill="black"/>
</svg>
